<svg version="1.1" xmlns="http://www.w3.org/2000/svg" viewBox="0 0 886.9478801973684 399.7231896612887" width="1773.8957603947367" height="799.4463793225774">
  <!-- svg-source:excalidraw -->
  
  <defs>
    <style class="style-fonts">
      @font-face {
        font-family: "Virgil";
        src: url("https://excalidraw.com/Virgil.woff2");
      }
      @font-face {
        font-family: "Cascadia";
        src: url("https://excalidraw.com/Cascadia.woff2");
      }
      @font-face {
        font-family: "Assistant";
        src: url("https://app.excalidraw.com//dist/excalidraw-assets/Assistant-Regular.woff2");
      }
    </style>
    
  </defs>
  <rect x="0" y="0" width="886.9478801973684" height="399.7231896612887" fill="#ffffff"></rect><g stroke-linecap="round" transform="translate(245.41956843241357 110.32865107125582) rotate(0 226.3199091055418 13.754271283094397)"><path d="M6.88 0 C166.61 0, 326.34 0, 445.76 0 C450.35 0, 452.64 2.29, 452.64 6.88 C452.64 10.21, 452.64 13.55, 452.64 20.63 C452.64 25.22, 450.35 27.51, 445.76 27.51 C301.73 27.51, 157.7 27.51, 6.88 27.51 C2.29 27.51, 0 25.22, 0 20.63 C0 17.48, 0 14.34, 0 6.88 C0 2.29, 2.29 0, 6.88 0" stroke="none" stroke-width="0" fill="#ffffff"></path><path d="M6.88 0 C159.01 0, 311.14 0, 445.76 0 M445.76 0 C450.35 0, 452.64 2.29, 452.64 6.88 M452.64 6.88 C452.64 11.61, 452.64 16.35, 452.64 20.63 M452.64 20.63 C452.64 25.22, 450.35 27.51, 445.76 27.51 M445.76 27.51 C348.1 27.51, 250.44 27.51, 6.88 27.51 M6.88 27.51 C2.29 27.51, 0 25.22, 0 20.63 M0 20.63 C0 16.94, 0 13.25, 0 6.88 M0 6.88 C0 2.29, 2.29 0, 6.88 0" stroke="#f08c00" stroke-width="2.5" fill="none" stroke-dasharray="8 10"></path></g><g stroke-linecap="round" transform="translate(245.02166675795482 182.7749975167515) rotate(0 226.31990910554177 13.754271283094397)"><path d="M6.88 0 C127.56 0, 248.23 0, 445.76 0 C450.35 0, 452.64 2.29, 452.64 6.88 C452.64 9.8, 452.64 12.73, 452.64 20.63 C452.64 25.22, 450.35 27.51, 445.76 27.51 C303.3 27.51, 160.84 27.51, 6.88 27.51 C2.29 27.51, 0 25.22, 0 20.63 C0 15.47, 0 10.31, 0 6.88 C0 2.29, 2.29 0, 6.88 0" stroke="none" stroke-width="0" fill="#ffffff"></path><path d="M6.88 0 C101.43 0, 195.98 0, 445.76 0 M445.76 0 C450.35 0, 452.64 2.29, 452.64 6.88 M452.64 6.88 C452.64 11.85, 452.64 16.82, 452.64 20.63 M452.64 20.63 C452.64 25.22, 450.35 27.51, 445.76 27.51 M445.76 27.51 C272.46 27.51, 99.16 27.51, 6.88 27.51 M6.88 27.51 C2.29 27.51, 0 25.22, 0 20.63 M0 20.63 C0 15.35, 0 10.06, 0 6.88 M0 6.88 C0 2.29, 2.29 0, 6.88 0" stroke="#2f9e44" stroke-width="2.5" fill="none" stroke-dasharray="8 10"></path></g><g stroke-linecap="round" transform="translate(460.4833724378029 233.19412481752573) rotate(0 32.71818304621547 13.063070951689213)"><path d="M6.53 0 C23.91 0, 41.28 0, 58.9 0 C63.26 0, 65.44 2.18, 65.44 6.53 C65.44 9.98, 65.44 13.42, 65.44 19.59 C65.44 23.95, 63.26 26.13, 58.9 26.13 C43.19 26.13, 27.48 26.13, 6.53 26.13 C2.18 26.13, 0 23.95, 0 19.59 C0 15.14, 0 10.68, 0 6.53 C0 2.18, 2.18 0, 6.53 0" stroke="none" stroke-width="0" fill="#ffffff"></path><path d="M6.53 0 C25.46 0, 44.39 0, 58.9 0 M58.9 0 C63.26 0, 65.44 2.18, 65.44 6.53 M65.44 6.53 C65.44 9.86, 65.44 13.18, 65.44 19.59 M65.44 19.59 C65.44 23.95, 63.26 26.13, 58.9 26.13 M58.9 26.13 C42.05 26.13, 25.2 26.13, 6.53 26.13 M6.53 26.13 C2.18 26.13, 0 23.95, 0 19.59 M0 19.59 C0 16.5, 0 13.41, 0 6.53 M0 6.53 C0 2.18, 2.18 0, 6.53 0" stroke="#9c36b5" stroke-width="2.5" fill="none" stroke-dasharray="8 10"></path></g><g stroke-linecap="round" transform="translate(262.9503749170526 137.7380228070836) rotate(0 37.60113529542167 91.08508066198448)"><path d="M18.8 0 C31.33 1.18, 44.67 0.1, 56.4 0 M18.8 0 C34.31 -0.88, 49.25 -0.67, 56.4 0 M56.4 0 C70.06 0.33, 75.12 6.7, 75.2 18.8 M56.4 0 C70.73 0.33, 76.69 6.33, 75.2 18.8 M75.2 18.8 C72.04 66.29, 72.07 112.58, 75.2 163.37 M75.2 18.8 C73.13 55.96, 73.55 94.58, 75.2 163.37 M75.2 163.37 C74.42 175.06, 69.89 181.24, 56.4 182.17 M75.2 163.37 C73.95 173.66, 68.91 183.11, 56.4 182.17 M56.4 182.17 C42.86 181.46, 34.35 181.33, 18.8 182.17 M56.4 182.17 C45.66 181.71, 35.02 182.84, 18.8 182.17 M18.8 182.17 C4.72 180.85, 0.46 177.49, 0 163.37 M18.8 182.17 C4.76 184.07, -0.72 175.29, 0 163.37 M0 163.37 C-1.76 125.28, -0.77 89.9, 0 18.8 M0 163.37 C0.22 123.04, -0.42 80.92, 0 18.8 M0 18.8 C-1.22 7.24, 6.45 0.75, 18.8 0 M0 18.8 C-1.14 7.38, 4.56 -0.66, 18.8 0" stroke="#1e1e1e" stroke-width="2" fill="none"></path></g><g stroke-linecap="round" transform="translate(343.65995883139567 137.7380228070836) rotate(0 53.960226818529435 90.60923948428126)"><path d="M26.98 0 C44 1.05, 56.07 -1.51, 80.94 0 M26.98 0 C37.73 -0.73, 49.35 -0.47, 80.94 0 M80.94 0 C100.05 1.5, 109.44 8.46, 107.92 26.98 M80.94 0 C99.37 -1.68, 106.49 8.76, 107.92 26.98 M107.92 26.98 C108.92 76.66, 110.09 127.86, 107.92 154.24 M107.92 26.98 C106.04 56.82, 106.73 86.2, 107.92 154.24 M107.92 154.24 C106.82 171.33, 100.79 179.76, 80.94 181.22 M107.92 154.24 C107.93 172.17, 97.47 180.42, 80.94 181.22 M80.94 181.22 C62.69 182.63, 45.53 182.24, 26.98 181.22 M80.94 181.22 C61.1 181.52, 41.33 180.89, 26.98 181.22 M26.98 181.22 C8.49 179.91, -0.95 173.28, 0 154.24 M26.98 181.22 C7.5 181.77, 2.17 173.49, 0 154.24 M0 154.24 C-0.32 111.39, 2.38 73.93, 0 26.98 M0 154.24 C-1.22 126.09, -1.65 97.05, 0 26.98 M0 26.98 C-1.49 7.35, 10.66 -0.4, 26.98 0 M0 26.98 C-1.61 8.56, 7.22 -2.22, 26.98 0" stroke="#1e1e1e" stroke-width="2" fill="none"></path></g><g stroke-linecap="round" transform="translate(532.4293253750051 137.7380228070836) rotate(0 76.59960147149621 90.25851171968105)"><path d="M32 0 C53.91 0.56, 75.71 1.86, 121.2 0 M32 0 C59.16 -0.16, 86.07 -0.58, 121.2 0 M121.2 0 C142.06 -1.4, 154.03 12.35, 153.2 32 M121.2 0 C142.8 2.29, 153.37 12.13, 153.2 32 M153.2 32 C155.2 64.25, 152.39 99.74, 153.2 148.52 M153.2 32 C154.16 73.21, 152.53 115.47, 153.2 148.52 M153.2 148.52 C153.32 168.91, 141.55 181.07, 121.2 180.52 M153.2 148.52 C155.23 168.06, 144.76 179.99, 121.2 180.52 M121.2 180.52 C90.35 180.53, 59.13 181.45, 32 180.52 M121.2 180.52 C92.61 181.13, 65.34 181.49, 32 180.52 M32 180.52 C12.59 180.08, 0.53 170.45, 0 148.52 M32 180.52 C12.84 182.23, -1.84 171.47, 0 148.52 M0 148.52 C-2.78 118.24, -1.38 87.1, 0 32 M0 148.52 C-0.89 120.19, 0.24 91.28, 0 32 M0 32 C-0.86 8.84, 11.56 -0.92, 32 0 M0 32 C-0.04 12.95, 12.19 -0.26, 32 0" stroke="#1e1e1e" stroke-width="2" fill="none"></path></g><g transform="translate(276.0886195874742 111.57381089129001) rotate(0 24.462890625 11.5)"><text x="0" y="0" font-family="Helvetica, Segoe UI Emoji" font-size="20px" fill="#1e1e1e" text-anchor="start" style="white-space: pre;" direction="ltr" dominant-baseline="text-before-edge">Index</text></g><g transform="translate(288.4330678139529 160.36919167718906) rotate(0 8.219993591308594 62.5)"><text x="8.219993591308594" y="0" font-family="Virgil, Segoe UI Emoji" font-size="20px" fill="#1e1e1e" text-anchor="middle" style="white-space: pre;" direction="ltr" dominant-baseline="text-before-edge">1</text><text x="8.219993591308594" y="25" font-family="Virgil, Segoe UI Emoji" font-size="20px" fill="#1e1e1e" text-anchor="middle" style="white-space: pre;" direction="ltr" dominant-baseline="text-before-edge">2</text><text x="8.219993591308594" y="50" font-family="Virgil, Segoe UI Emoji" font-size="20px" fill="#1e1e1e" text-anchor="middle" style="white-space: pre;" direction="ltr" dominant-baseline="text-before-edge">3</text><text x="8.219993591308594" y="75" font-family="Virgil, Segoe UI Emoji" font-size="20px" fill="#1e1e1e" text-anchor="middle" style="white-space: pre;" direction="ltr" dominant-baseline="text-before-edge">4</text><text x="8.219993591308594" y="100" font-family="Virgil, Segoe UI Emoji" font-size="20px" fill="#1e1e1e" text-anchor="middle" style="white-space: pre;" direction="ltr" dominant-baseline="text-before-edge">...</text></g><g stroke-linecap="round" transform="translate(458.545712995415 137.7380228070836) rotate(0 34.31126784268042 90.60923948428126)"><path d="M17.16 0 C27.09 1.55, 37.3 -1.04, 51.47 0 M17.16 0 C28.09 -0.61, 38.15 -0.08, 51.47 0 M51.47 0 C62.02 -1.15, 69.85 5.47, 68.62 17.16 M51.47 0 C64.74 -0.07, 68.27 3.94, 68.62 17.16 M68.62 17.16 C67.56 50.32, 68.09 82.76, 68.62 164.06 M68.62 17.16 C69.37 76.16, 69.84 134.01, 68.62 164.06 M68.62 164.06 C67.79 173.68, 62.25 180.78, 51.47 181.22 M68.62 164.06 C69.67 175.31, 63.7 181.81, 51.47 181.22 M51.47 181.22 C42.45 180.19, 29.6 180.19, 17.16 181.22 M51.47 181.22 C39.8 180.23, 27.25 181.22, 17.16 181.22 M17.16 181.22 C6.5 181.69, 1.83 177.01, 0 164.06 M17.16 181.22 C7.69 179.73, 1.95 174.26, 0 164.06 M0 164.06 C1.08 111.88, 0.94 58.19, 0 17.16 M0 164.06 C0.94 114.52, 1.2 66.47, 0 17.16 M0 17.16 C-0.07 4.05, 7.33 -1.41, 17.16 0 M0 17.16 C0.24 7.5, 6.37 -1.94, 17.16 0" stroke="#1e1e1e" stroke-width="2" fill="none"></path></g><g transform="translate(370.94538096242513 111.57381089129001) rotate(0 26.6748046875 11.5)"><text x="26.6748046875" y="0" font-family="Helvetica, Segoe UI Emoji" font-size="20px" fill="#1e1e1e" text-anchor="middle" style="white-space: pre;" direction="ltr" dominant-baseline="text-before-edge">Name</text></g><g transform="translate(371.3990246795531 160.36919167718906) rotate(0 27.48998260498047 62.5)"><text x="27.48998260498047" y="0" font-family="Virgil, Segoe UI Emoji" font-size="20px" fill="#1e1e1e" text-anchor="middle" style="white-space: pre;" direction="ltr" dominant-baseline="text-before-edge">John</text><text x="27.48998260498047" y="25" font-family="Virgil, Segoe UI Emoji" font-size="20px" fill="#1e1e1e" text-anchor="middle" style="white-space: pre;" direction="ltr" dominant-baseline="text-before-edge">Lisa</text><text x="27.48998260498047" y="50" font-family="Virgil, Segoe UI Emoji" font-size="20px" fill="#1e1e1e" text-anchor="middle" style="white-space: pre;" direction="ltr" dominant-baseline="text-before-edge">Maria</text><text x="27.48998260498047" y="75" font-family="Virgil, Segoe UI Emoji" font-size="20px" fill="#1e1e1e" text-anchor="middle" style="white-space: pre;" direction="ltr" dominant-baseline="text-before-edge">Emil</text><text x="27.48998260498047" y="100" font-family="Virgil, Segoe UI Emoji" font-size="20px" fill="#1e1e1e" text-anchor="middle" style="white-space: pre;" direction="ltr" dominant-baseline="text-before-edge">...</text></g><g transform="translate(471.4951785831581 111.57381089129001) rotate(0 20.5615234375 11.5)"><text x="20.5615234375" y="0" font-family="Helvetica, Segoe UI Emoji" font-size="20px" fill="#1e1e1e" text-anchor="middle" style="white-space: pre;" direction="ltr" dominant-baseline="text-before-edge">Alter</text></g><g transform="translate(479.1854191467562 160.36919167718906) rotate(0 13.92999267578125 62.5)"><text x="13.92999267578125" y="0" font-family="Virgil, Segoe UI Emoji" font-size="20px" fill="#1e1e1e" text-anchor="middle" style="white-space: pre;" direction="ltr" dominant-baseline="text-before-edge">23</text><text x="13.92999267578125" y="25" font-family="Virgil, Segoe UI Emoji" font-size="20px" fill="#1e1e1e" text-anchor="middle" style="white-space: pre;" direction="ltr" dominant-baseline="text-before-edge">42</text><text x="13.92999267578125" y="50" font-family="Virgil, Segoe UI Emoji" font-size="20px" fill="#1e1e1e" text-anchor="middle" style="white-space: pre;" direction="ltr" dominant-baseline="text-before-edge">18</text><text x="13.92999267578125" y="75" font-family="Virgil, Segoe UI Emoji" font-size="20px" fill="#1e1e1e" text-anchor="middle" style="white-space: pre;" direction="ltr" dominant-baseline="text-before-edge">64</text><text x="13.92999267578125" y="100" font-family="Virgil, Segoe UI Emoji" font-size="20px" fill="#1e1e1e" text-anchor="middle" style="white-space: pre;" direction="ltr" dominant-baseline="text-before-edge">...</text></g><g transform="translate(548.9996299715012 111.57381089129001) rotate(0 60.029296875 11.5)"><text x="60.029296875" y="0" font-family="Helvetica, Segoe UI Emoji" font-size="20px" fill="#1e1e1e" text-anchor="middle" style="white-space: pre;" direction="ltr" dominant-baseline="text-before-edge">Reaktionszeit</text></g><g transform="translate(571.7571905984198 160.36919167718906) rotate(0 34.509971618652344 62.5)"><text x="34.509971618652344" y="0" font-family="Virgil, Segoe UI Emoji" font-size="20px" fill="#1e1e1e" text-anchor="middle" style="white-space: pre;" direction="ltr" dominant-baseline="text-before-edge">24,67s</text><text x="34.509971618652344" y="25" font-family="Virgil, Segoe UI Emoji" font-size="20px" fill="#1e1e1e" text-anchor="middle" style="white-space: pre;" direction="ltr" dominant-baseline="text-before-edge">86,37s</text><text x="34.509971618652344" y="50" font-family="Virgil, Segoe UI Emoji" font-size="20px" fill="#1e1e1e" text-anchor="middle" style="white-space: pre;" direction="ltr" dominant-baseline="text-before-edge">124,2s</text><text x="34.509971618652344" y="75" font-family="Virgil, Segoe UI Emoji" font-size="20px" fill="#1e1e1e" text-anchor="middle" style="white-space: pre;" direction="ltr" dominant-baseline="text-before-edge">35,26s</text><text x="34.509971618652344" y="100" font-family="Virgil, Segoe UI Emoji" font-size="20px" fill="#1e1e1e" text-anchor="middle" style="white-space: pre;" direction="ltr" dominant-baseline="text-before-edge">...</text></g><g stroke-linecap="round" transform="translate(458.37510332261104 98.66571920688273) rotate(0 33.68159869804714 114.54076905945945)"><path d="M16.84 0 C25.9 1.01, 30.04 -1.55, 50.52 0 M50.52 0 C61.3 1.07, 65.71 4.19, 67.36 16.84 M67.36 16.84 C66.69 80.76, 67.77 146.48, 67.36 212.24 M67.36 212.24 C68.51 223.51, 62.75 227.39, 50.52 229.08 M50.52 229.08 C43.54 227.71, 31.91 229.47, 16.84 229.08 M16.84 229.08 C6.18 227.56, -1.33 222.74, 0 212.24 M0 212.24 C-0.52 146.66, 1.03 80.62, 0 16.84 M0 16.84 C-1.98 5.99, 6.28 -0.39, 16.84 0" stroke="#1971c2" stroke-width="2.5" fill="none" stroke-dasharray="8 10"></path></g><g transform="translate(10 126.37598458138586) rotate(0 76.13993835449217 50)"><text x="76.13993835449219" y="0" font-family="Virgil, Segoe UI Emoji" font-size="20px" fill="#2f9e44" text-anchor="middle" style="white-space: pre;" direction="ltr" dominant-baseline="text-before-edge">Beobachtungen/</text><text x="76.13993835449219" y="25" font-family="Virgil, Segoe UI Emoji" font-size="20px" fill="#2f9e44" text-anchor="middle" style="white-space: pre;" direction="ltr" dominant-baseline="text-before-edge">Records/</text><text x="76.13993835449219" y="50" font-family="Virgil, Segoe UI Emoji" font-size="20px" fill="#2f9e44" text-anchor="middle" style="white-space: pre;" direction="ltr" dominant-baseline="text-before-edge">Samples</text><text x="76.13993835449219" y="75" font-family="Virgil, Segoe UI Emoji" font-size="20px" fill="#2f9e44" text-anchor="middle" style="white-space: pre;" direction="ltr" dominant-baseline="text-before-edge"></text></g><g transform="translate(530.5527130277621 10) rotate(0 142.47988891601562 12.5)"><text x="142.47988891601562" y="0" font-family="Virgil, Segoe UI Emoji" font-size="20px" fill="#1971c2" text-anchor="middle" style="white-space: pre;" direction="ltr" dominant-baseline="text-before-edge">Merkmale/Variablen/Attribute</text></g><g stroke-linecap="round"><g transform="translate(173.28040506095599 176.30053154069196) rotate(0 32.0714896473026 10.89770948693777)"><path d="M0 0 C3.84 2.67, 12.33 12.41, 23.02 16.04 C33.71 19.67, 57.29 20.84, 64.14 21.8" stroke="#2f9e44" stroke-width="2.5" fill="none" stroke-dasharray="8 10"></path></g><g transform="translate(173.28040506095599 176.30053154069196) rotate(0 32.0714896473026 10.89770948693777)"><path d="M44.03 26.94 C51.87 24.93, 59.71 22.93, 64.14 21.8" stroke="#2f9e44" stroke-width="2.5" fill="none"></path></g><g transform="translate(173.28040506095599 176.30053154069196) rotate(0 32.0714896473026 10.89770948693777)"><path d="M45.43 12.8 C52.72 16.31, 60.01 19.81, 64.14 21.8" stroke="#2f9e44" stroke-width="2.5" fill="none"></path></g></g><mask></mask><g stroke-linecap="round"><g transform="translate(620.8658744442025 44.170319054033854) rotate(0 -48.62367492342662 28.45094374543038)"><path d="M0 0 C-11.2 4.12, -51 15.21, -67.21 24.69 C-83.42 34.18, -92.24 51.53, -97.25 56.9" stroke="#1971c2" stroke-width="2.5" fill="none" stroke-dasharray="8 10"></path></g><g transform="translate(620.8658744442025 44.170319054033854) rotate(0 -48.62367492342662 28.45094374543038)"><path d="M-90.88 35.82 C-92.36 40.7, -93.83 45.58, -97.25 56.9" stroke="#1971c2" stroke-width="2.5" fill="none"></path></g><g transform="translate(620.8658744442025 44.170319054033854) rotate(0 -48.62367492342662 28.45094374543038)"><path d="M-78.82 44.84 C-83.09 47.63, -87.36 50.43, -97.25 56.9" stroke="#1971c2" stroke-width="2.5" fill="none"></path></g></g><mask></mask><g transform="translate(134.34138054131793 29.148505323437007) rotate(0 33.10997009277344 12.5)"><text x="33.10997009277344" y="0" font-family="Virgil, Segoe UI Emoji" font-size="20px" fill="#f08c00" text-anchor="middle" style="white-space: pre;" direction="ltr" dominant-baseline="text-before-edge">Header</text></g><g stroke-linecap="round"><g transform="translate(185.81983989429918 69.38990147230535) rotate(0 26.600242556914765 19.718694320857267)"><path d="M0 0 C1.99 2.14, 3.1 6.24, 11.96 12.81 C20.83 19.39, 46.33 35, 53.2 39.44" stroke="#f08c00" stroke-width="2.5" fill="none" stroke-dasharray="8 10"></path></g><g transform="translate(185.81983989429918 69.38990147230535) rotate(0 26.600242556914765 19.718694320857267)"><path d="M29.21 34.25 C38.66 36.29, 48.1 38.33, 53.2 39.44" stroke="#f08c00" stroke-width="2.5" fill="none"></path></g><g transform="translate(185.81983989429918 69.38990147230535) rotate(0 26.600242556914765 19.718694320857267)"><path d="M38.16 20.04 C44.08 27.68, 50 35.32, 53.2 39.44" stroke="#f08c00" stroke-width="2.5" fill="none"></path></g></g><mask></mask><g transform="translate(519.6269524088585 364.72318966128876) rotate(0 106.55990600585938 12.499999999999972)"><text x="106.55990600585938" y="0" font-family="Virgil, Segoe UI Emoji" font-size="20px" fill="#9c36b5" text-anchor="middle" style="white-space: pre;" direction="ltr" dominant-baseline="text-before-edge">Messwert/Datenpunkt</text></g><g stroke-linecap="round"><g transform="translate(583.0035737298501 355.0709974963257) rotate(0 -26.42114269573426 -46.234533740458204)"><path d="M0 0 C-3.04 -8.82, -9.44 -37.5, -18.25 -52.91 C-27.06 -68.32, -47.08 -85.88, -52.84 -92.47" stroke="#9c36b5" stroke-width="2.5" fill="none" stroke-dasharray="8 10"></path></g><g transform="translate(583.0035737298501 355.0709974963257) rotate(0 -26.42114269573426 -46.234533740458204)"><path d="M-30.3 -81.65 C-34.9 -83.86, -39.5 -86.07, -52.84 -92.47" stroke="#9c36b5" stroke-width="2.5" fill="none"></path></g><g transform="translate(583.0035737298501 355.0709974963257) rotate(0 -26.42114269573426 -46.234533740458204)"><path d="M-42.53 -69.69 C-44.64 -74.34, -46.74 -78.99, -52.84 -92.47" stroke="#9c36b5" stroke-width="2.5" fill="none"></path></g></g><mask></mask><g transform="translate(716.5023343586155 108.54014457575093) rotate(0 19.55871323525014 109.21785652024671)" stroke="none"><path fill="#1e1e1e" d="M 0,-2.65 Q 0,-2.65 1.37,-2.64 2.74,-2.63 4.61,-2.49 6.48,-2.35 7.99,-1.22 9.50,-0.09 10.30,1.35 11.09,2.80 11.53,4.40 11.97,6.00 12.39,7.55 12.81,9.09 13.30,11.00 13.80,12.91 14.02,14.17 14.25,15.43 14.50,16.54 14.75,17.64 14.97,18.77 15.19,19.89 15.45,20.98 15.71,22.06 15.94,23.33 16.17,24.60 16.43,25.88 16.69,27.16 16.90,28.64 17.11,30.11 17.36,31.64 17.60,33.16 17.77,35.03 17.94,36.90 18.07,38.80 18.19,40.71 18.38,43.51 18.58,46.31 18.74,48.79 18.89,51.27 19.05,53.61 19.20,55.94 19.25,58.09 19.30,60.23 19.44,62.22 19.58,64.20 19.80,65.85 20.01,67.50 20.15,69.08 20.29,70.66 20.47,72.09 20.66,73.52 20.87,74.81 21.08,76.10 21.29,77.48 21.50,78.85 21.70,80.26 21.91,81.66 22.11,83.08 22.31,84.50 22.52,85.64 22.73,86.78 23.27,88.81 23.81,90.84 24.36,92.87 24.92,94.90 25.27,95.94 25.63,96.97 26.49,98.81 27.35,100.66 27.84,101.62 28.32,102.58 28.82,103.56 29.31,104.53 30.11,106.00 30.91,107.48 31.68,108.66 32.44,109.84 33.30,110.97 34.16,112.09 34.95,112.91 35.75,113.72 36.98,114.72 38.22,115.73 39.62,116.71 41.01,117.69 41.39,119.54 41.77,121.39 40.62,122.67 39.46,123.95 38.13,124.40 36.81,124.86 35.91,126.24 35.01,127.62 34.08,129.45 33.15,131.29 32.61,132.42 32.07,133.55 31.23,135.11 30.39,136.68 29.74,138.02 29.10,139.35 28.51,140.62 27.93,141.89 27.52,142.94 27.12,144.00 26.76,145.01 26.41,146.02 25.75,147.93 25.09,149.85 24.60,151.60 24.10,153.35 23.79,154.49 23.48,155.63 23.09,157.66 22.71,159.68 22.54,160.73 22.37,161.78 22.06,163.02 21.76,164.26 21.55,166.09 21.34,167.93 21.07,169.14 20.80,170.36 20.60,171.98 20.41,173.60 20.13,175.19 19.86,176.78 19.72,178.14 19.58,179.50 19.43,180.69 19.27,181.88 18.99,183.43 18.70,184.99 18.52,186.43 18.34,187.88 18.08,189.48 17.82,191.09 17.66,192.63 17.51,194.18 17.34,195.47 17.17,196.76 16.90,198.30 16.62,199.85 16.37,201.35 16.11,202.86 15.96,204.22 15.81,205.57 15.54,206.85 15.27,208.12 15.00,209.51 14.73,210.90 14.45,212.00 14.16,213.10 13.72,214.49 13.28,215.89 12.83,217.08 12.37,218.28 8.95,220.16 5.52,222.04 4.95,221.95 4.37,221.86 3.85,221.59 3.33,221.31 2.93,220.89 2.53,220.47 2.28,219.94 2.03,219.41 1.97,218.83 1.90,218.25 2.02,217.68 2.14,217.11 2.44,216.61 2.74,216.11 3.18,215.73 3.63,215.35 4.17,215.13 4.71,214.91 5.29,214.87 5.88,214.84 6.44,214.99 7.00,215.15 7.49,215.47 7.97,215.80 8.33,216.26 8.68,216.72 8.87,217.28 9.06,217.83 9.07,218.41 9.07,219.00 8.89,219.55 8.70,220.11 8.35,220.57 8.00,221.04 7.52,221.37 7.04,221.70 6.47,221.86 5.91,222.02 5.33,221.99 4.75,221.96 4.20,221.75 3.66,221.53 3.21,221.16 2.76,220.78 2.46,220.28 2.16,219.78 2.03,219.21 1.90,218.64 1.96,218.06 2.02,217.48 2.26,216.95 2.51,216.42 2.91,215.99 3.31,215.57 3.82,215.29 4.34,215.02 4.91,214.92 5.49,214.82 5.49,214.82 5.49,214.82 5.73,214.93 5.98,215.04 6.41,213.92 6.83,212.80 7.24,211.57 7.64,210.34 7.96,208.85 8.27,207.36 8.61,206.19 8.95,205.02 9.11,203.96 9.28,202.90 9.59,201.39 9.90,199.89 10.12,198.67 10.34,197.44 10.53,195.99 10.73,194.53 10.95,193.17 11.18,191.81 11.40,190.14 11.62,188.47 11.82,186.92 12.01,185.38 12.33,183.94 12.64,182.49 12.85,181.09 13.06,179.69 13.32,178.45 13.57,177.22 13.85,175.63 14.12,174.04 14.42,172.65 14.72,171.25 14.86,170.16 15.00,169.08 15.37,167.22 15.74,165.35 15.89,164.12 16.05,162.89 16.48,160.80 16.90,158.71 17.10,157.51 17.30,156.31 17.54,155.20 17.79,154.08 18.08,153.01 18.36,151.94 18.65,150.84 18.94,149.74 19.63,147.93 20.31,146.13 20.68,145.11 21.04,144.09 21.43,143.02 21.83,141.96 22.28,140.79 22.73,139.63 23.25,138.34 23.78,137.04 24.33,135.63 24.88,134.22 25.46,132.58 26.05,130.95 26.52,129.74 26.99,128.54 27.46,127.36 27.94,126.18 28.47,125.04 28.99,123.90 29.95,122.46 30.92,121.01 32.00,120.06 33.08,119.12 34.74,119.15 36.39,119.19 36.67,120.86 36.96,122.53 35.93,121.99 34.90,121.44 34.04,120.72 33.19,120.00 32.17,119.02 31.15,118.03 30.17,116.88 29.20,115.73 28.31,114.44 27.42,113.14 26.67,111.79 25.91,110.43 25.09,108.72 24.27,107.02 23.79,106.01 23.31,105.01 22.84,104.00 22.36,102.98 21.89,101.93 21.42,100.87 20.97,99.74 20.52,98.60 20.20,97.52 19.88,96.43 19.50,95.12 19.13,93.80 18.84,91.83 18.54,89.86 18.30,88.66 18.07,87.46 17.94,86.26 17.81,85.06 17.66,83.63 17.51,82.20 17.37,80.78 17.22,79.36 17.10,77.97 16.97,76.57 16.88,75.22 16.79,73.87 16.71,72.35 16.63,70.83 16.63,69.33 16.62,67.84 16.51,66.14 16.39,64.44 16.22,62.41 16.05,60.39 15.91,58.33 15.76,56.28 15.46,53.97 15.16,51.67 14.80,49.23 14.44,46.80 13.97,44.02 13.51,41.25 13.20,39.42 12.90,37.59 12.58,35.91 12.26,34.23 11.89,32.64 11.51,31.04 11.26,29.75 11.01,28.45 10.67,27.08 10.33,25.72 10.11,24.62 9.89,23.53 9.36,21.31 8.83,19.09 8.30,16.82 7.77,14.54 7.46,13.46 7.16,12.39 6.70,10.64 6.24,8.89 5.95,7.50 5.67,6.11 5.29,4.54 4.92,2.98 3.83,2.80 2.74,2.63 1.37,2.64 0,2.65 -0.31,2.61 -0.63,2.57 -0.93,2.46 -1.23,2.35 -1.49,2.16 -1.76,1.98 -1.97,1.74 -2.18,1.50 -2.33,1.22 -2.48,0.94 -2.55,0.63 -2.63,0.31 -2.63,-0.00 -2.63,-0.32 -2.55,-0.63 -2.48,-0.94 -2.33,-1.22 -2.18,-1.50 -1.97,-1.74 -1.76,-1.98 -1.49,-2.16 -1.23,-2.35 -0.93,-2.46 -0.63,-2.57 -0.31,-2.61 0.00,-2.65 0.00,-2.65 L 0,-2.65 Z"></path></g><g transform="translate(769.4879650362356 218.77941879641213) rotate(0 53.729957580566406 12.5)"><text x="53.729957580566406" y="0" font-family="Virgil, Segoe UI Emoji" font-size="20px" fill="#1e1e1e" text-anchor="middle" style="white-space: pre;" direction="ltr" dominant-baseline="text-before-edge">Datensatz</text></g></svg>