<svg version="1.1" xmlns="http://www.w3.org/2000/svg" viewBox="0 0 833.7124878080356 399.7231896612887" width="1667.4249756160712" height="799.4463793225774">
  <!-- svg-source:excalidraw -->
  
  <defs>
    <style class="style-fonts">
      @font-face {
        font-family: "Virgil";
        src: url("https://excalidraw.com/Virgil.woff2");
      }
      @font-face {
        font-family: "Cascadia";
        src: url("https://excalidraw.com/Cascadia.woff2");
      }
      @font-face {
        font-family: "Assistant";
        src: url("https://app.excalidraw.com//dist/excalidraw-assets/Assistant-Regular.woff2");
      }
    </style>
    
  </defs>
  <rect x="0" y="0" width="833.7124878080356" height="399.7231896612887" fill="#ffffff"></rect><g stroke-linecap="round" transform="translate(245.41956843241357 110.32865107125582) rotate(0 226.3199091055418 13.754271283094397)"><path d="M6.88 0 C166.61 0, 326.34 0, 445.76 0 C450.35 0, 452.64 2.29, 452.64 6.88 C452.64 10.21, 452.64 13.55, 452.64 20.63 C452.64 25.22, 450.35 27.51, 445.76 27.51 C301.73 27.51, 157.7 27.51, 6.88 27.51 C2.29 27.51, 0 25.22, 0 20.63 C0 17.48, 0 14.34, 0 6.88 C0 2.29, 2.29 0, 6.88 0" stroke="none" stroke-width="0" fill="#ffffff"></path><path d="M6.88 0 C159.01 0, 311.14 0, 445.76 0 M445.76 0 C450.35 0, 452.64 2.29, 452.64 6.88 M452.64 6.88 C452.64 11.61, 452.64 16.35, 452.64 20.63 M452.64 20.63 C452.64 25.22, 450.35 27.51, 445.76 27.51 M445.76 27.51 C348.1 27.51, 250.44 27.51, 6.88 27.51 M6.88 27.51 C2.29 27.51, 0 25.22, 0 20.63 M0 20.63 C0 16.94, 0 13.25, 0 6.88 M0 6.88 C0 2.29, 2.29 0, 6.88 0" stroke="#f08c00" stroke-width="2.5" fill="none" stroke-dasharray="8 10"></path></g><g stroke-linecap="round" transform="translate(245.02166675795482 182.7749975167515) rotate(0 226.31990910554177 13.754271283094397)"><path d="M6.88 0 C127.56 0, 248.23 0, 445.76 0 C450.35 0, 452.64 2.29, 452.64 6.88 C452.64 9.8, 452.64 12.73, 452.64 20.63 C452.64 25.22, 450.35 27.51, 445.76 27.51 C303.3 27.51, 160.84 27.51, 6.88 27.51 C2.29 27.51, 0 25.22, 0 20.63 C0 15.47, 0 10.31, 0 6.88 C0 2.29, 2.29 0, 6.88 0" stroke="none" stroke-width="0" fill="#ffffff"></path><path d="M6.88 0 C101.43 0, 195.98 0, 445.76 0 M445.76 0 C450.35 0, 452.64 2.29, 452.64 6.88 M452.64 6.88 C452.64 11.85, 452.64 16.82, 452.64 20.63 M452.64 20.63 C452.64 25.22, 450.35 27.51, 445.76 27.51 M445.76 27.51 C272.46 27.51, 99.16 27.51, 6.88 27.51 M6.88 27.51 C2.29 27.51, 0 25.22, 0 20.63 M0 20.63 C0 15.35, 0 10.06, 0 6.88 M0 6.88 C0 2.29, 2.29 0, 6.88 0" stroke="#2f9e44" stroke-width="2.5" fill="none" stroke-dasharray="8 10"></path></g><g stroke-linecap="round" transform="translate(460.4833724378029 233.19412481752573) rotate(0 32.71818304621547 13.063070951689213)"><path d="M6.53 0 C23.91 0, 41.28 0, 58.9 0 C63.26 0, 65.44 2.18, 65.44 6.53 C65.44 9.98, 65.44 13.42, 65.44 19.59 C65.44 23.95, 63.26 26.13, 58.9 26.13 C43.19 26.13, 27.48 26.13, 6.53 26.13 C2.18 26.13, 0 23.95, 0 19.59 C0 15.14, 0 10.68, 0 6.53 C0 2.18, 2.18 0, 6.53 0" stroke="none" stroke-width="0" fill="#ffffff"></path><path d="M6.53 0 C25.46 0, 44.39 0, 58.9 0 M58.9 0 C63.26 0, 65.44 2.18, 65.44 6.53 M65.44 6.53 C65.44 9.86, 65.44 13.18, 65.44 19.59 M65.44 19.59 C65.44 23.95, 63.26 26.13, 58.9 26.13 M58.9 26.13 C42.05 26.13, 25.2 26.13, 6.53 26.13 M6.53 26.13 C2.18 26.13, 0 23.95, 0 19.59 M0 19.59 C0 16.5, 0 13.41, 0 6.53 M0 6.53 C0 2.18, 2.18 0, 6.53 0" stroke="#9c36b5" stroke-width="2.5" fill="none" stroke-dasharray="8 10"></path></g><g stroke-linecap="round" transform="translate(262.9503749170526 137.7380228070836) rotate(0 37.60113529542167 91.08508066198448)"><path d="M18.8 0 C31.33 1.18, 44.67 0.1, 56.4 0 M18.8 0 C34.31 -0.88, 49.25 -0.67, 56.4 0 M56.4 0 C70.06 0.33, 75.12 6.7, 75.2 18.8 M56.4 0 C70.73 0.33, 76.69 6.33, 75.2 18.8 M75.2 18.8 C72.04 66.29, 72.07 112.58, 75.2 163.37 M75.2 18.8 C73.13 55.96, 73.55 94.58, 75.2 163.37 M75.2 163.37 C74.42 175.06, 69.89 181.24, 56.4 182.17 M75.2 163.37 C73.95 173.66, 68.91 183.11, 56.4 182.17 M56.4 182.17 C42.86 181.46, 34.35 181.33, 18.8 182.17 M56.4 182.17 C45.66 181.71, 35.02 182.84, 18.8 182.17 M18.8 182.17 C4.72 180.85, 0.46 177.49, 0 163.37 M18.8 182.17 C4.76 184.07, -0.72 175.29, 0 163.37 M0 163.37 C-1.76 125.28, -0.77 89.9, 0 18.8 M0 163.37 C0.22 123.04, -0.42 80.92, 0 18.8 M0 18.8 C-1.22 7.24, 6.45 0.75, 18.8 0 M0 18.8 C-1.14 7.38, 4.56 -0.66, 18.8 0" stroke="#1e1e1e" stroke-width="2" fill="none"></path></g><g stroke-linecap="round" transform="translate(343.65995883139567 137.7380228070836) rotate(0 53.960226818529435 90.60923948428126)"><path d="M26.98 0 C44 1.05, 56.07 -1.51, 80.94 0 M26.98 0 C37.73 -0.73, 49.35 -0.47, 80.94 0 M80.94 0 C100.05 1.5, 109.44 8.46, 107.92 26.98 M80.94 0 C99.37 -1.68, 106.49 8.76, 107.92 26.98 M107.92 26.98 C108.92 76.66, 110.09 127.86, 107.92 154.24 M107.92 26.98 C106.04 56.82, 106.73 86.2, 107.92 154.24 M107.92 154.24 C106.82 171.33, 100.79 179.76, 80.94 181.22 M107.92 154.24 C107.93 172.17, 97.47 180.42, 80.94 181.22 M80.94 181.22 C62.69 182.63, 45.53 182.24, 26.98 181.22 M80.94 181.22 C61.1 181.52, 41.33 180.89, 26.98 181.22 M26.98 181.22 C8.49 179.91, -0.95 173.28, 0 154.24 M26.98 181.22 C7.5 181.77, 2.17 173.49, 0 154.24 M0 154.24 C-0.32 111.39, 2.38 73.93, 0 26.98 M0 154.24 C-1.22 126.09, -1.65 97.05, 0 26.98 M0 26.98 C-1.49 7.35, 10.66 -0.4, 26.98 0 M0 26.98 C-1.61 8.56, 7.22 -2.22, 26.98 0" stroke="#1e1e1e" stroke-width="2" fill="none"></path></g><g stroke-linecap="round" transform="translate(458.37510332261104 138.25488477596815) rotate(0 33.68159869804714 89.87291628257671)"><path d="M16.84 0 C25.9 1.01, 30.04 -1.55, 50.52 0 M50.52 0 C61.3 1.07, 65.71 4.19, 67.36 16.84 M67.36 16.84 C66.5 64.45, 67.59 113.87, 67.36 162.91 M67.36 162.91 C68.51 174.18, 62.75 178.05, 50.52 179.75 M50.52 179.75 C43.54 178.38, 31.91 180.14, 16.84 179.75 M16.84 179.75 C6.18 178.22, -1.33 173.4, 0 162.91 M0 162.91 C-0.6 113.83, 0.95 64.28, 0 16.84 M0 16.84 C-1.98 5.99, 6.28 -0.39, 16.84 0" stroke="#1971c2" stroke-width="2.5" fill="none" stroke-dasharray="8 10"></path></g><g stroke-linecap="round" transform="translate(532.4293253750051 137.7380228070836) rotate(0 76.59960147149621 90.25851171968105)"><path d="M32 0 C53.91 0.56, 75.71 1.86, 121.2 0 M32 0 C59.16 -0.16, 86.07 -0.58, 121.2 0 M121.2 0 C142.06 -1.4, 154.03 12.35, 153.2 32 M121.2 0 C142.8 2.29, 153.37 12.13, 153.2 32 M153.2 32 C155.2 64.25, 152.39 99.74, 153.2 148.52 M153.2 32 C154.16 73.21, 152.53 115.47, 153.2 148.52 M153.2 148.52 C153.32 168.91, 141.55 181.07, 121.2 180.52 M153.2 148.52 C155.23 168.06, 144.76 179.99, 121.2 180.52 M121.2 180.52 C90.35 180.53, 59.13 181.45, 32 180.52 M121.2 180.52 C92.61 181.13, 65.34 181.49, 32 180.52 M32 180.52 C12.59 180.08, 0.53 170.45, 0 148.52 M32 180.52 C12.84 182.23, -1.84 171.47, 0 148.52 M0 148.52 C-2.78 118.24, -1.38 87.1, 0 32 M0 148.52 C-0.89 120.19, 0.24 91.28, 0 32 M0 32 C-0.86 8.84, 11.56 -0.92, 32 0 M0 32 C-0.04 12.95, 12.19 -0.26, 32 0" stroke="#1e1e1e" stroke-width="2" fill="none"></path></g><g transform="translate(276.0886195874742 111.57381089129001) rotate(0 24.462890625 11.5)"><text x="0" y="0" font-family="Helvetica, Segoe UI Emoji" font-size="20px" fill="#1e1e1e" text-anchor="start" style="white-space: pre;" direction="ltr" dominant-baseline="text-before-edge">Index</text></g><g transform="translate(288.4330678139529 160.36919167718906) rotate(0 8.219993591308594 62.5)"><text x="8.219993591308594" y="0" font-family="Virgil, Segoe UI Emoji" font-size="20px" fill="#1e1e1e" text-anchor="middle" style="white-space: pre;" direction="ltr" dominant-baseline="text-before-edge">1</text><text x="8.219993591308594" y="25" font-family="Virgil, Segoe UI Emoji" font-size="20px" fill="#1e1e1e" text-anchor="middle" style="white-space: pre;" direction="ltr" dominant-baseline="text-before-edge">2</text><text x="8.219993591308594" y="50" font-family="Virgil, Segoe UI Emoji" font-size="20px" fill="#1e1e1e" text-anchor="middle" style="white-space: pre;" direction="ltr" dominant-baseline="text-before-edge">3</text><text x="8.219993591308594" y="75" font-family="Virgil, Segoe UI Emoji" font-size="20px" fill="#1e1e1e" text-anchor="middle" style="white-space: pre;" direction="ltr" dominant-baseline="text-before-edge">4</text><text x="8.219993591308594" y="100" font-family="Virgil, Segoe UI Emoji" font-size="20px" fill="#1e1e1e" text-anchor="middle" style="white-space: pre;" direction="ltr" dominant-baseline="text-before-edge">...</text></g><g transform="translate(370.94538096242513 111.57381089129001) rotate(0 26.6748046875 11.5)"><text x="26.6748046875" y="0" font-family="Helvetica, Segoe UI Emoji" font-size="20px" fill="#1e1e1e" text-anchor="middle" style="white-space: pre;" direction="ltr" dominant-baseline="text-before-edge">Name</text></g><g transform="translate(371.3990246795531 160.36919167718906) rotate(0 27.48998260498047 62.5)"><text x="27.48998260498047" y="0" font-family="Virgil, Segoe UI Emoji" font-size="20px" fill="#1e1e1e" text-anchor="middle" style="white-space: pre;" direction="ltr" dominant-baseline="text-before-edge">John</text><text x="27.48998260498047" y="25" font-family="Virgil, Segoe UI Emoji" font-size="20px" fill="#1e1e1e" text-anchor="middle" style="white-space: pre;" direction="ltr" dominant-baseline="text-before-edge">Lisa</text><text x="27.48998260498047" y="50" font-family="Virgil, Segoe UI Emoji" font-size="20px" fill="#1e1e1e" text-anchor="middle" style="white-space: pre;" direction="ltr" dominant-baseline="text-before-edge">Maria</text><text x="27.48998260498047" y="75" font-family="Virgil, Segoe UI Emoji" font-size="20px" fill="#1e1e1e" text-anchor="middle" style="white-space: pre;" direction="ltr" dominant-baseline="text-before-edge">Emil</text><text x="27.48998260498047" y="100" font-family="Virgil, Segoe UI Emoji" font-size="20px" fill="#1e1e1e" text-anchor="middle" style="white-space: pre;" direction="ltr" dominant-baseline="text-before-edge">...</text></g><g transform="translate(471.4951785831581 111.57381089129001) rotate(0 20.5615234375 11.5)"><text x="20.5615234375" y="0" font-family="Helvetica, Segoe UI Emoji" font-size="20px" fill="#1e1e1e" text-anchor="middle" style="white-space: pre;" direction="ltr" dominant-baseline="text-before-edge">Alter</text></g><g transform="translate(479.1854191467562 160.36919167718906) rotate(0 13.92999267578125 62.5)"><text x="13.92999267578125" y="0" font-family="Virgil, Segoe UI Emoji" font-size="20px" fill="#1e1e1e" text-anchor="middle" style="white-space: pre;" direction="ltr" dominant-baseline="text-before-edge">23</text><text x="13.92999267578125" y="25" font-family="Virgil, Segoe UI Emoji" font-size="20px" fill="#1e1e1e" text-anchor="middle" style="white-space: pre;" direction="ltr" dominant-baseline="text-before-edge">42</text><text x="13.92999267578125" y="50" font-family="Virgil, Segoe UI Emoji" font-size="20px" fill="#1e1e1e" text-anchor="middle" style="white-space: pre;" direction="ltr" dominant-baseline="text-before-edge">18</text><text x="13.92999267578125" y="75" font-family="Virgil, Segoe UI Emoji" font-size="20px" fill="#1e1e1e" text-anchor="middle" style="white-space: pre;" direction="ltr" dominant-baseline="text-before-edge">64</text><text x="13.92999267578125" y="100" font-family="Virgil, Segoe UI Emoji" font-size="20px" fill="#1e1e1e" text-anchor="middle" style="white-space: pre;" direction="ltr" dominant-baseline="text-before-edge">...</text></g><g transform="translate(548.9996299715012 111.57381089129001) rotate(0 60.029296875 11.5)"><text x="60.029296875" y="0" font-family="Helvetica, Segoe UI Emoji" font-size="20px" fill="#1e1e1e" text-anchor="middle" style="white-space: pre;" direction="ltr" dominant-baseline="text-before-edge">Reaktionszeit</text></g><g transform="translate(571.7571905984198 160.36919167718906) rotate(0 34.509971618652344 62.5)"><text x="34.509971618652344" y="0" font-family="Virgil, Segoe UI Emoji" font-size="20px" fill="#1e1e1e" text-anchor="middle" style="white-space: pre;" direction="ltr" dominant-baseline="text-before-edge">24,67s</text><text x="34.509971618652344" y="25" font-family="Virgil, Segoe UI Emoji" font-size="20px" fill="#1e1e1e" text-anchor="middle" style="white-space: pre;" direction="ltr" dominant-baseline="text-before-edge">86,37s</text><text x="34.509971618652344" y="50" font-family="Virgil, Segoe UI Emoji" font-size="20px" fill="#1e1e1e" text-anchor="middle" style="white-space: pre;" direction="ltr" dominant-baseline="text-before-edge">124,2s</text><text x="34.509971618652344" y="75" font-family="Virgil, Segoe UI Emoji" font-size="20px" fill="#1e1e1e" text-anchor="middle" style="white-space: pre;" direction="ltr" dominant-baseline="text-before-edge">35,26s</text><text x="34.509971618652344" y="100" font-family="Virgil, Segoe UI Emoji" font-size="20px" fill="#1e1e1e" text-anchor="middle" style="white-space: pre;" direction="ltr" dominant-baseline="text-before-edge">...</text></g><g transform="translate(10 126.37598458138586) rotate(0 76.13993835449217 50)"><text x="76.13993835449219" y="0" font-family="Virgil, Segoe UI Emoji" font-size="20px" fill="#2f9e44" text-anchor="middle" style="white-space: pre;" direction="ltr" dominant-baseline="text-before-edge">Beobachtungen/</text><text x="76.13993835449219" y="25" font-family="Virgil, Segoe UI Emoji" font-size="20px" fill="#2f9e44" text-anchor="middle" style="white-space: pre;" direction="ltr" dominant-baseline="text-before-edge">Records/</text><text x="76.13993835449219" y="50" font-family="Virgil, Segoe UI Emoji" font-size="20px" fill="#2f9e44" text-anchor="middle" style="white-space: pre;" direction="ltr" dominant-baseline="text-before-edge">Samples</text><text x="76.13993835449219" y="75" font-family="Virgil, Segoe UI Emoji" font-size="20px" fill="#2f9e44" text-anchor="middle" style="white-space: pre;" direction="ltr" dominant-baseline="text-before-edge"></text></g><g transform="translate(522.35271607952 10) rotate(0 150.6798858642578 12.5)"><text x="150.6798858642578" y="0" font-family="Virgil, Segoe UI Emoji" font-size="20px" fill="#1971c2" text-anchor="middle" style="white-space: pre;" direction="ltr" dominant-baseline="text-before-edge">Merkmale/Variablen/Dimensionen</text></g><g stroke-linecap="round"><g transform="translate(173.28040506095599 176.30053154069196) rotate(0 32.0714896473026 10.89770948693777)"><path d="M0 0 C3.84 2.67, 12.33 12.41, 23.02 16.04 C33.71 19.67, 57.29 20.84, 64.14 21.8" stroke="#2f9e44" stroke-width="2.5" fill="none" stroke-dasharray="8 10"></path></g><g transform="translate(173.28040506095599 176.30053154069196) rotate(0 32.0714896473026 10.89770948693777)"><path d="M44.03 26.94 C51.87 24.93, 59.71 22.93, 64.14 21.8" stroke="#2f9e44" stroke-width="2.5" fill="none"></path></g><g transform="translate(173.28040506095599 176.30053154069196) rotate(0 32.0714896473026 10.89770948693777)"><path d="M45.43 12.8 C52.72 16.31, 60.01 19.81, 64.14 21.8" stroke="#2f9e44" stroke-width="2.5" fill="none"></path></g></g><mask></mask><g stroke-linecap="round"><g transform="translate(621.0361717814349 44.170319054033854) rotate(0 -48.70882359204279 28.45094374543038)"><path d="M0 0 C-11.23 4.12, -51.14 15.21, -67.38 24.69 C-83.61 34.18, -92.41 51.53, -97.42 56.9" stroke="#1971c2" stroke-width="2.5" fill="none" stroke-dasharray="8 10"></path></g><g transform="translate(621.0361717814349 44.170319054033854) rotate(0 -48.70882359204279 28.45094374543038)"><path d="M-91.06 35.82 C-92.54 40.7, -94.01 45.58, -97.42 56.9" stroke="#1971c2" stroke-width="2.5" fill="none"></path></g><g transform="translate(621.0361717814349 44.170319054033854) rotate(0 -48.70882359204279 28.45094374543038)"><path d="M-79 44.83 C-83.26 47.63, -87.53 50.42, -97.42 56.9" stroke="#1971c2" stroke-width="2.5" fill="none"></path></g></g><mask></mask><g transform="translate(134.34138054131793 29.148505323437007) rotate(0 33.10997009277344 12.5)"><text x="33.10997009277344" y="0" font-family="Virgil, Segoe UI Emoji" font-size="20px" fill="#f08c00" text-anchor="middle" style="white-space: pre;" direction="ltr" dominant-baseline="text-before-edge">Header</text></g><g stroke-linecap="round"><g transform="translate(185.81983989429918 69.38990147230535) rotate(0 26.600242556914765 19.718694320857267)"><path d="M0 0 C1.99 2.14, 3.1 6.24, 11.96 12.81 C20.83 19.39, 46.33 35, 53.2 39.44" stroke="#f08c00" stroke-width="2.5" fill="none" stroke-dasharray="8 10"></path></g><g transform="translate(185.81983989429918 69.38990147230535) rotate(0 26.600242556914765 19.718694320857267)"><path d="M29.21 34.25 C38.66 36.29, 48.1 38.33, 53.2 39.44" stroke="#f08c00" stroke-width="2.5" fill="none"></path></g><g transform="translate(185.81983989429918 69.38990147230535) rotate(0 26.600242556914765 19.718694320857267)"><path d="M38.16 20.04 C44.08 27.68, 50 35.32, 53.2 39.44" stroke="#f08c00" stroke-width="2.5" fill="none"></path></g></g><mask></mask><g transform="translate(519.6269524088585 364.72318966128876) rotate(0 106.55990600585938 12.499999999999972)"><text x="106.55990600585938" y="0" font-family="Virgil, Segoe UI Emoji" font-size="20px" fill="#9c36b5" text-anchor="middle" style="white-space: pre;" direction="ltr" dominant-baseline="text-before-edge">Messwert/Datenpunkt</text></g><g stroke-linecap="round"><g transform="translate(583.0035737298501 355.0709974963257) rotate(0 -26.42114269573426 -46.234533740458204)"><path d="M0 0 C-3.04 -8.82, -9.44 -37.5, -18.25 -52.91 C-27.06 -68.32, -47.08 -85.88, -52.84 -92.47" stroke="#9c36b5" stroke-width="2.5" fill="none" stroke-dasharray="8 10"></path></g><g transform="translate(583.0035737298501 355.0709974963257) rotate(0 -26.42114269573426 -46.234533740458204)"><path d="M-30.3 -81.65 C-34.9 -83.86, -39.5 -86.07, -52.84 -92.47" stroke="#9c36b5" stroke-width="2.5" fill="none"></path></g><g transform="translate(583.0035737298501 355.0709974963257) rotate(0 -26.42114269573426 -46.234533740458204)"><path d="M-42.53 -69.69 C-44.64 -74.34, -46.74 -78.99, -52.84 -92.47" stroke="#9c36b5" stroke-width="2.5" fill="none"></path></g></g><mask></mask></svg>