<svg version="1.1" xmlns="http://www.w3.org/2000/svg" viewBox="0 0 1084.590884823944 317.5055858765473" width="2169.181769647888" height="635.0111717530946">
  <!-- svg-source:excalidraw -->
  
  <defs>
    <style class="style-fonts">
      @font-face {
        font-family: "Virgil";
        src: url("https://excalidraw.com/Virgil.woff2");
      }
      @font-face {
        font-family: "Cascadia";
        src: url("https://excalidraw.com/Cascadia.woff2");
      }
      @font-face {
        font-family: "Assistant";
        src: url("https://app.excalidraw.com//dist/excalidraw-assets/Assistant-Regular.woff2");
      }
    </style>
    
  </defs>
  <rect x="0" y="0" width="1084.590884823944" height="317.5055858765473" fill="#ffffff"></rect><g stroke-linecap="round" transform="translate(871.8967528020235 208.5628141255345) rotate(0 12.0390625 14.03515625)"><path d="M24.08 14.04 C24.08 14.85, 24.02 15.67, 23.9 16.47 C23.77 17.27, 23.59 18.07, 23.35 18.84 C23.11 19.6, 22.81 20.35, 22.47 21.05 C22.12 21.76, 21.71 22.43, 21.26 23.06 C20.81 23.68, 20.31 24.26, 19.78 24.79 C19.24 25.31, 18.66 25.78, 18.06 26.19 C17.46 26.6, 16.81 26.95, 16.16 27.22 C15.5 27.5, 14.82 27.72, 14.13 27.86 C13.44 28, 12.74 28.07, 12.04 28.07 C11.34 28.07, 10.63 28, 9.95 27.86 C9.26 27.72, 8.58 27.5, 7.92 27.22 C7.27 26.95, 6.62 26.6, 6.02 26.19 C5.42 25.78, 4.83 25.31, 4.3 24.79 C3.77 24.26, 3.26 23.68, 2.82 23.06 C2.37 22.43, 1.96 21.76, 1.61 21.05 C1.26 20.35, 0.96 19.6, 0.73 18.84 C0.49 18.07, 0.3 17.27, 0.18 16.47 C0.06 15.67, 0 14.85, 0 14.04 C0 13.22, 0.06 12.4, 0.18 11.6 C0.3 10.8, 0.49 10, 0.73 9.23 C0.96 8.47, 1.26 7.72, 1.61 7.02 C1.96 6.31, 2.37 5.64, 2.82 5.01 C3.26 4.39, 3.77 3.81, 4.3 3.28 C4.83 2.76, 5.42 2.29, 6.02 1.88 C6.62 1.47, 7.27 1.12, 7.92 0.85 C8.58 0.57, 9.26 0.35, 9.95 0.21 C10.63 0.07, 11.34 0, 12.04 0 C12.74 0, 13.44 0.07, 14.13 0.21 C14.82 0.35, 15.5 0.57, 16.16 0.85 C16.81 1.12, 17.46 1.47, 18.06 1.88 C18.66 2.29, 19.24 2.76, 19.78 3.28 C20.31 3.81, 20.81 4.39, 21.26 5.01 C21.71 5.64, 22.12 6.31, 22.47 7.02 C22.81 7.72, 23.11 8.47, 23.35 9.23 C23.59 10, 23.77 10.8, 23.9 11.6 C24.02 12.4, 24.05 13.63, 24.08 14.04 C24.11 14.44, 24.11 13.63, 24.08 14.04" stroke="none" stroke-width="0" fill="#ffffff"></path><path d="M24.08 14.04 C24.08 14.85, 24.02 15.67, 23.9 16.47 C23.77 17.27, 23.59 18.07, 23.35 18.84 C23.11 19.6, 22.81 20.35, 22.47 21.05 C22.12 21.76, 21.71 22.43, 21.26 23.06 C20.81 23.68, 20.31 24.26, 19.78 24.79 C19.24 25.31, 18.66 25.78, 18.06 26.19 C17.46 26.6, 16.81 26.95, 16.16 27.22 C15.5 27.5, 14.82 27.72, 14.13 27.86 C13.44 28, 12.74 28.07, 12.04 28.07 C11.34 28.07, 10.63 28, 9.95 27.86 C9.26 27.72, 8.58 27.5, 7.92 27.22 C7.27 26.95, 6.62 26.6, 6.02 26.19 C5.42 25.78, 4.83 25.31, 4.3 24.79 C3.77 24.26, 3.26 23.68, 2.82 23.06 C2.37 22.43, 1.96 21.76, 1.61 21.05 C1.26 20.35, 0.96 19.6, 0.73 18.84 C0.49 18.07, 0.3 17.27, 0.18 16.47 C0.06 15.67, 0 14.85, 0 14.04 C0 13.22, 0.06 12.4, 0.18 11.6 C0.3 10.8, 0.49 10, 0.73 9.23 C0.96 8.47, 1.26 7.72, 1.61 7.02 C1.96 6.31, 2.37 5.64, 2.82 5.01 C3.26 4.39, 3.77 3.81, 4.3 3.28 C4.83 2.76, 5.42 2.29, 6.02 1.88 C6.62 1.47, 7.27 1.12, 7.92 0.85 C8.58 0.57, 9.26 0.35, 9.95 0.21 C10.63 0.07, 11.34 0, 12.04 0 C12.74 0, 13.44 0.07, 14.13 0.21 C14.82 0.35, 15.5 0.57, 16.16 0.85 C16.81 1.12, 17.46 1.47, 18.06 1.88 C18.66 2.29, 19.24 2.76, 19.78 3.28 C20.31 3.81, 20.81 4.39, 21.26 5.01 C21.71 5.64, 22.12 6.31, 22.47 7.02 C22.81 7.72, 23.11 8.47, 23.35 9.23 C23.59 10, 23.77 10.8, 23.9 11.6 C24.02 12.4, 24.05 13.63, 24.08 14.04 C24.11 14.44, 24.11 13.63, 24.08 14.04" stroke="#2f9e44" stroke-width="2.5" fill="none" stroke-dasharray="8 10"></path></g><g stroke-linecap="round" transform="translate(521.7462798901981 210.7204296265473) rotate(0 12.0390625 14.03515625)"><path d="M24.08 14.04 C24.08 14.85, 24.02 15.67, 23.9 16.47 C23.77 17.27, 23.59 18.07, 23.35 18.84 C23.11 19.6, 22.81 20.35, 22.47 21.05 C22.12 21.76, 21.71 22.43, 21.26 23.06 C20.81 23.68, 20.31 24.26, 19.78 24.79 C19.24 25.31, 18.66 25.78, 18.06 26.19 C17.46 26.6, 16.81 26.95, 16.16 27.22 C15.5 27.5, 14.82 27.72, 14.13 27.86 C13.44 28, 12.74 28.07, 12.04 28.07 C11.34 28.07, 10.63 28, 9.95 27.86 C9.26 27.72, 8.58 27.5, 7.92 27.22 C7.27 26.95, 6.62 26.6, 6.02 26.19 C5.42 25.78, 4.83 25.31, 4.3 24.79 C3.77 24.26, 3.26 23.68, 2.82 23.06 C2.37 22.43, 1.96 21.76, 1.61 21.05 C1.26 20.35, 0.96 19.6, 0.73 18.84 C0.49 18.07, 0.3 17.27, 0.18 16.47 C0.06 15.67, 0 14.85, 0 14.04 C0 13.22, 0.06 12.4, 0.18 11.6 C0.3 10.8, 0.49 10, 0.73 9.23 C0.96 8.47, 1.26 7.72, 1.61 7.02 C1.96 6.31, 2.37 5.64, 2.82 5.01 C3.26 4.39, 3.77 3.81, 4.3 3.28 C4.83 2.76, 5.42 2.29, 6.02 1.88 C6.62 1.47, 7.27 1.12, 7.92 0.85 C8.58 0.57, 9.26 0.35, 9.95 0.21 C10.63 0.07, 11.34 0, 12.04 0 C12.74 0, 13.44 0.07, 14.13 0.21 C14.82 0.35, 15.5 0.57, 16.16 0.85 C16.81 1.12, 17.46 1.47, 18.06 1.88 C18.66 2.29, 19.24 2.76, 19.78 3.28 C20.31 3.81, 20.81 4.39, 21.26 5.01 C21.71 5.64, 22.12 6.31, 22.47 7.02 C22.81 7.72, 23.11 8.47, 23.35 9.23 C23.59 10, 23.77 10.8, 23.9 11.6 C24.02 12.4, 24.05 13.63, 24.08 14.04 C24.11 14.44, 24.11 13.63, 24.08 14.04" stroke="none" stroke-width="0" fill="#ffffff"></path><path d="M24.08 14.04 C24.08 14.85, 24.02 15.67, 23.9 16.47 C23.77 17.27, 23.59 18.07, 23.35 18.84 C23.11 19.6, 22.81 20.35, 22.47 21.05 C22.12 21.76, 21.71 22.43, 21.26 23.06 C20.81 23.68, 20.31 24.26, 19.78 24.79 C19.24 25.31, 18.66 25.78, 18.06 26.19 C17.46 26.6, 16.81 26.95, 16.16 27.22 C15.5 27.5, 14.82 27.72, 14.13 27.86 C13.44 28, 12.74 28.07, 12.04 28.07 C11.34 28.07, 10.63 28, 9.95 27.86 C9.26 27.72, 8.58 27.5, 7.92 27.22 C7.27 26.95, 6.62 26.6, 6.02 26.19 C5.42 25.78, 4.83 25.31, 4.3 24.79 C3.77 24.26, 3.26 23.68, 2.82 23.06 C2.37 22.43, 1.96 21.76, 1.61 21.05 C1.26 20.35, 0.96 19.6, 0.73 18.84 C0.49 18.07, 0.3 17.27, 0.18 16.47 C0.06 15.67, 0 14.85, 0 14.04 C0 13.22, 0.06 12.4, 0.18 11.6 C0.3 10.8, 0.49 10, 0.73 9.23 C0.96 8.47, 1.26 7.72, 1.61 7.02 C1.96 6.31, 2.37 5.64, 2.82 5.01 C3.26 4.39, 3.77 3.81, 4.3 3.28 C4.83 2.76, 5.42 2.29, 6.02 1.88 C6.62 1.47, 7.27 1.12, 7.92 0.85 C8.58 0.57, 9.26 0.35, 9.95 0.21 C10.63 0.07, 11.34 0, 12.04 0 C12.74 0, 13.44 0.07, 14.13 0.21 C14.82 0.35, 15.5 0.57, 16.16 0.85 C16.81 1.12, 17.46 1.47, 18.06 1.88 C18.66 2.29, 19.24 2.76, 19.78 3.28 C20.31 3.81, 20.81 4.39, 21.26 5.01 C21.71 5.64, 22.12 6.31, 22.47 7.02 C22.81 7.72, 23.11 8.47, 23.35 9.23 C23.59 10, 23.77 10.8, 23.9 11.6 C24.02 12.4, 24.05 13.63, 24.08 14.04 C24.11 14.44, 24.11 13.63, 24.08 14.04" stroke="#2f9e44" stroke-width="2.5" fill="none" stroke-dasharray="8 10"></path></g><g stroke-linecap="round" transform="translate(172.22674864019814 212.3532421265473) rotate(0 12.0390625 14.03515625)"><path d="M24.08 14.04 C24.08 14.85, 24.02 15.67, 23.9 16.47 C23.77 17.27, 23.59 18.07, 23.35 18.84 C23.11 19.6, 22.81 20.35, 22.47 21.05 C22.12 21.76, 21.71 22.43, 21.26 23.06 C20.81 23.68, 20.31 24.26, 19.78 24.79 C19.24 25.31, 18.66 25.78, 18.06 26.19 C17.46 26.6, 16.81 26.95, 16.16 27.22 C15.5 27.5, 14.82 27.72, 14.13 27.86 C13.44 28, 12.74 28.07, 12.04 28.07 C11.34 28.07, 10.63 28, 9.95 27.86 C9.26 27.72, 8.58 27.5, 7.92 27.22 C7.27 26.95, 6.62 26.6, 6.02 26.19 C5.42 25.78, 4.83 25.31, 4.3 24.79 C3.77 24.26, 3.26 23.68, 2.82 23.06 C2.37 22.43, 1.96 21.76, 1.61 21.05 C1.26 20.35, 0.96 19.6, 0.73 18.84 C0.49 18.07, 0.3 17.27, 0.18 16.47 C0.06 15.67, 0 14.85, 0 14.04 C0 13.22, 0.06 12.4, 0.18 11.6 C0.3 10.8, 0.49 10, 0.73 9.23 C0.96 8.47, 1.26 7.72, 1.61 7.02 C1.96 6.31, 2.37 5.64, 2.82 5.01 C3.26 4.39, 3.77 3.81, 4.3 3.28 C4.83 2.76, 5.42 2.29, 6.02 1.88 C6.62 1.47, 7.27 1.12, 7.92 0.85 C8.58 0.57, 9.26 0.35, 9.95 0.21 C10.63 0.07, 11.34 0, 12.04 0 C12.74 0, 13.44 0.07, 14.13 0.21 C14.82 0.35, 15.5 0.57, 16.16 0.85 C16.81 1.12, 17.46 1.47, 18.06 1.88 C18.66 2.29, 19.24 2.76, 19.78 3.28 C20.31 3.81, 20.81 4.39, 21.26 5.01 C21.71 5.64, 22.12 6.31, 22.47 7.02 C22.81 7.72, 23.11 8.47, 23.35 9.23 C23.59 10, 23.77 10.8, 23.9 11.6 C24.02 12.4, 24.05 13.63, 24.08 14.04 C24.11 14.44, 24.11 13.63, 24.08 14.04" stroke="none" stroke-width="0" fill="#ffffff"></path><path d="M24.08 14.04 C24.08 14.85, 24.02 15.67, 23.9 16.47 C23.77 17.27, 23.59 18.07, 23.35 18.84 C23.11 19.6, 22.81 20.35, 22.47 21.05 C22.12 21.76, 21.71 22.43, 21.26 23.06 C20.81 23.68, 20.31 24.26, 19.78 24.79 C19.24 25.31, 18.66 25.78, 18.06 26.19 C17.46 26.6, 16.81 26.95, 16.16 27.22 C15.5 27.5, 14.82 27.72, 14.13 27.86 C13.44 28, 12.74 28.07, 12.04 28.07 C11.34 28.07, 10.63 28, 9.95 27.86 C9.26 27.72, 8.58 27.5, 7.92 27.22 C7.27 26.95, 6.62 26.6, 6.02 26.19 C5.42 25.78, 4.83 25.31, 4.3 24.79 C3.77 24.26, 3.26 23.68, 2.82 23.06 C2.37 22.43, 1.96 21.76, 1.61 21.05 C1.26 20.35, 0.96 19.6, 0.73 18.84 C0.49 18.07, 0.3 17.27, 0.18 16.47 C0.06 15.67, 0 14.85, 0 14.04 C0 13.22, 0.06 12.4, 0.18 11.6 C0.3 10.8, 0.49 10, 0.73 9.23 C0.96 8.47, 1.26 7.72, 1.61 7.02 C1.96 6.31, 2.37 5.64, 2.82 5.01 C3.26 4.39, 3.77 3.81, 4.3 3.28 C4.83 2.76, 5.42 2.29, 6.02 1.88 C6.62 1.47, 7.27 1.12, 7.92 0.85 C8.58 0.57, 9.26 0.35, 9.95 0.21 C10.63 0.07, 11.34 0, 12.04 0 C12.74 0, 13.44 0.07, 14.13 0.21 C14.82 0.35, 15.5 0.57, 16.16 0.85 C16.81 1.12, 17.46 1.47, 18.06 1.88 C18.66 2.29, 19.24 2.76, 19.78 3.28 C20.31 3.81, 20.81 4.39, 21.26 5.01 C21.71 5.64, 22.12 6.31, 22.47 7.02 C22.81 7.72, 23.11 8.47, 23.35 9.23 C23.59 10, 23.77 10.8, 23.9 11.6 C24.02 12.4, 24.05 13.63, 24.08 14.04 C24.11 14.44, 24.11 13.63, 24.08 14.04" stroke="#2f9e44" stroke-width="2.5" fill="none" stroke-dasharray="8 10"></path></g><g transform="translate(424.1483011320033 10) rotate(0 114.25995635986328 12.5)"><text x="114.25995635986328" y="0" font-family="Virgil, Segoe UI Emoji" font-size="20px" fill="#1e1e1e" text-anchor="middle" style="white-space: pre;" direction="ltr" dominant-baseline="text-before-edge">1 5 8 2 4 1 7 3 9 6 3</text></g><g transform="translate(424.1483011320033 97.3515625) rotate(0 114.25995635986328 12.5)"><text x="114.25995635986328" y="0" font-family="Virgil, Segoe UI Emoji" font-size="20px" fill="#1e1e1e" text-anchor="middle" style="white-space: pre;" direction="ltr" dominant-baseline="text-before-edge">1 1 2 3 3 4 5 6 7 8 9</text></g><g stroke-linecap="round"><g transform="translate(656.4221266814982 43.587681506940385) rotate(0 4.56087685668092 21.987354842092415)"><path d="M0 0 C1.92 2.74, 11.95 9.13, 11.55 16.46 C11.14 23.79, -0.1 39.39, -2.43 43.97 M0 0 C1.92 2.74, 11.95 9.13, 11.55 16.46 C11.14 23.79, -0.1 39.39, -2.43 43.97" stroke="#1e1e1e" stroke-width="2" fill="none"></path></g><g transform="translate(656.4221266814982 43.587681506940385) rotate(0 4.56087685668092 21.987354842092415)"><path d="M0.54 28.84 C-0.32 33.27, -1.19 37.7, -2.43 43.97 M0.54 28.84 C-0.53 34.3, -1.6 39.77, -2.43 43.97" stroke="#1e1e1e" stroke-width="2" fill="none"></path></g><g transform="translate(656.4221266814982 43.587681506940385) rotate(0 4.56087685668092 21.987354842092415)"><path d="M9.58 34.29 C6.07 37.12, 2.55 39.96, -2.43 43.97 M9.58 34.29 C5.24 37.79, 0.91 41.28, -2.43 43.97" stroke="#1e1e1e" stroke-width="2" fill="none"></path></g></g><mask></mask><g transform="translate(689.3156228567719 47.6015625) rotate(0 43.01995086669922 12.5)"><text x="43.01995086669922" y="0" font-family="Virgil, Segoe UI Emoji" font-size="20px" fill="#1e1e1e" text-anchor="middle" style="white-space: pre;" direction="ltr" dominant-baseline="text-before-edge">sortieren</text></g><g transform="translate(145.82226103033486 213.8063671265473) rotate(0 114.25995635986328 12.5)"><text x="114.25995635986328" y="0" font-family="Virgil, Segoe UI Emoji" font-size="20px" fill="#1e1e1e" text-anchor="middle" style="white-space: pre;" direction="ltr" dominant-baseline="text-before-edge">1 1 2 3 3 4 5 6 7 8 9</text></g><g transform="translate(423.97606962408486 212.7633983765473) rotate(0 114.25995635986328 12.5)"><text x="114.25995635986328" y="0" font-family="Virgil, Segoe UI Emoji" font-size="20px" fill="#1e1e1e" text-anchor="middle" style="white-space: pre;" direction="ltr" dominant-baseline="text-before-edge">1 1 2 3 3 4 5 6 7 8 9</text></g><g transform="translate(708.6152297803349 212.0915233765473) rotate(0 114.25995635986328 12.5)"><text x="114.25995635986328" y="0" font-family="Virgil, Segoe UI Emoji" font-size="20px" fill="#1e1e1e" text-anchor="middle" style="white-space: pre;" direction="ltr" dominant-baseline="text-before-edge">1 1 2 3 3 4 5 6 7 8 9</text></g><g transform="translate(10 143.91142924832252) rotate(0 61.33995056152344 12.5)"><text x="61.33995056152344" y="0" font-family="Virgil, Segoe UI Emoji" font-size="20px" fill="#2f9e44" text-anchor="middle" style="white-space: pre;" direction="ltr" dominant-baseline="text-before-edge">25%-Quantil</text></g><g stroke-linecap="round"><g transform="translate(139.43469910261703 156.52471401914875) rotate(0 18.693745079164856 22.87645877750694)"><path d="M0 0 C3.87 2.27, 17 6, 23.23 13.63 C29.46 21.25, 35.03 40.4, 37.39 45.75" stroke="#1e1e1e" stroke-width="1.5" fill="none" stroke-dasharray="8 9"></path></g><g transform="translate(139.43469910261703 156.52471401914875) rotate(0 18.693745079164856 22.87645877750694)"><path d="M26.02 32.38 C29.8 36.83, 33.58 41.28, 37.39 45.75" stroke="#1e1e1e" stroke-width="1.5" fill="none"></path></g><g transform="translate(139.43469910261703 156.52471401914875) rotate(0 18.693745079164856 22.87645877750694)"><path d="M37.27 28.2 C37.31 34.04, 37.35 39.87, 37.39 45.75" stroke="#1e1e1e" stroke-width="1.5" fill="none"></path></g></g><mask></mask><g stroke-linecap="round"><g transform="translate(169.44152644789784 261.7897522532163) rotate(0 -24.04296875 0)"><path d="M0 0 C-8.01 0, -40.07 0, -48.09 0 M0 0 C-8.01 0, -40.07 0, -48.09 0" stroke="#2f9e44" stroke-width="2" fill="none"></path></g></g><mask></mask><g stroke-linecap="round"><g transform="translate(183.80487364019814 249.9577210032163) rotate(0 0 11.83203125)"><path d="M0 0 C0 3.94, 0 19.72, 0 23.66 M0 0 C0 3.94, 0 19.72, 0 23.66" stroke="#2f9e44" stroke-width="2" fill="none"></path></g></g><mask></mask><g stroke-linecap="round"><g transform="translate(375.7474329106871 261.7897522532163) rotate(0 -90.248046875 0)"><path d="M0 0 C-30.08 0, -150.41 0, -180.5 0 M0 0 C-30.08 0, -150.41 0, -180.5 0" stroke="#2f9e44" stroke-width="2" fill="none"></path></g></g><mask></mask><g transform="translate(70.55120268850419 281.8415233765473) rotate(0 52.02997589111328 12.5)"><text x="52.02997589111328" y="0" font-family="Virgil, Segoe UI Emoji" font-size="20px" fill="#1e1e1e" text-anchor="middle" style="white-space: pre;" direction="ltr" dominant-baseline="text-before-edge">25% &lt;= 2</text></g><g transform="translate(202.2833282300419 282.5055858765473) rotate(0 42.91998291015625 12.5)"><text x="42.91998291015625" y="0" font-family="Virgil, Segoe UI Emoji" font-size="20px" fill="#1e1e1e" text-anchor="middle" style="white-space: pre;" direction="ltr" dominant-baseline="text-before-edge">75% &gt; 2</text></g><g transform="translate(360.3184226145237 143.91142924832252) rotate(0 61.099952697753906 25)"><text x="61.099952697753906" y="0" font-family="Virgil, Segoe UI Emoji" font-size="20px" fill="#2f9e44" text-anchor="middle" style="white-space: pre;" direction="ltr" dominant-baseline="text-before-edge">50%-Quantil</text><text x="61.099952697753906" y="25" font-family="Virgil, Segoe UI Emoji" font-size="20px" fill="#2f9e44" text-anchor="middle" style="white-space: pre;" direction="ltr" dominant-baseline="text-before-edge">=Median</text></g><g stroke-linecap="round"><g transform="translate(522.0133114619972 259.8892470834872) rotate(0 -47.50397759134398 0)"><path d="M0 0 C-15.83 0, -79.17 0, -95.01 0 M0 0 C-15.83 0, -79.17 0, -95.01 0" stroke="#2f9e44" stroke-width="2" fill="none"></path></g></g><mask></mask><g stroke-linecap="round"><g transform="translate(534.6105243918671 248.24678350321625) rotate(0 0 11.83203125)"><path d="M0 0 C0 3.94, 0 19.72, 0 23.66 M0 0 C0 3.94, 0 19.72, 0 23.66" stroke="#2f9e44" stroke-width="2" fill="none"></path></g></g><mask></mask><g stroke-linecap="round"><g transform="translate(652.8624775168671 260.29371817089435) rotate(0 -54.62899508067221 -0.2149034176781015)"><path d="M0 0 C-18.21 -0.07, -91.05 -0.36, -109.26 -0.43 M0 0 C-18.21 -0.07, -91.05 -0.36, -109.26 -0.43" stroke="#2f9e44" stroke-width="2" fill="none"></path></g></g><mask></mask><g stroke-linecap="round"><g transform="translate(663.058596608086 134.59858265790757) rotate(0 2.8268165127879 35.86916049831211)"><path d="M0 0 C1.79 5.89, 11.58 23.35, 10.73 35.31 C9.89 47.27, -2.44 65.67, -5.08 71.74 M0 0 C1.79 5.89, 11.58 23.35, 10.73 35.31 C9.89 47.27, -2.44 65.67, -5.08 71.74" stroke="#1e1e1e" stroke-width="2" fill="none"></path></g><g transform="translate(663.058596608086 134.59858265790757) rotate(0 2.8268165127879 35.86916049831211)"><path d="M-2.29 52.08 C-3.38 59.75, -4.47 67.42, -5.08 71.74 M-2.29 52.08 C-3.16 58.16, -4.02 64.24, -5.08 71.74" stroke="#1e1e1e" stroke-width="2" fill="none"></path></g><g transform="translate(663.058596608086 134.59858265790757) rotate(0 2.8268165127879 35.86916049831211)"><path d="M9.69 58.47 C3.93 63.65, -1.83 68.82, -5.08 71.74 M9.69 58.47 C5.12 62.57, 0.56 66.68, -5.08 71.74" stroke="#1e1e1e" stroke-width="2" fill="none"></path></g></g><mask></mask><g transform="translate(684.8866442935898 126.45960926637144) rotate(0 46.61994934082031 25)"><text x="46.61994934082031" y="0" font-family="Virgil, Segoe UI Emoji" font-size="20px" fill="#1e1e1e" text-anchor="middle" style="white-space: pre;" direction="ltr" dominant-baseline="text-before-edge">p-Quantil</text><text x="46.61994934082031" y="25" font-family="Virgil, Segoe UI Emoji" font-size="20px" fill="#1e1e1e" text-anchor="middle" style="white-space: pre;" direction="ltr" dominant-baseline="text-before-edge">bestimmen</text></g><g stroke-linecap="round"><g transform="translate(492.6557048480754 170.26353607757005) rotate(0 17.255398186149705 16.86012705414896)"><path d="M0 0 C3.61 1.69, 15.9 4.51, 21.65 10.13 C27.4 15.75, 32.37 29.79, 34.51 33.72" stroke="#1e1e1e" stroke-width="1.5" fill="none" stroke-dasharray="8 9"></path></g><g transform="translate(492.6557048480754 170.26353607757005) rotate(0 17.255398186149705 16.86012705414896)"><path d="M25.08 24.15 C27.05 26.14, 29.02 28.14, 34.51 33.72" stroke="#1e1e1e" stroke-width="1.5" fill="none"></path></g><g transform="translate(492.6557048480754 170.26353607757005) rotate(0 17.255398186149705 16.86012705414896)"><path d="M33.44 20.33 C33.67 23.12, 33.89 25.91, 34.51 33.72" stroke="#1e1e1e" stroke-width="1.5" fill="none"></path></g></g><mask></mask><g transform="translate(955.3909794284361 143.91142924832252) rotate(0 59.599952697753906 12.5)"><text x="59.599952697753906" y="0" font-family="Virgil, Segoe UI Emoji" font-size="20px" fill="#2f9e44" text-anchor="middle" style="white-space: pre;" direction="ltr" dominant-baseline="text-before-edge">75%-Quantil</text></g><g stroke-linecap="round"><g transform="translate(951.2193372341586 158.84415212439222) rotate(0 -26.988715309437225 21.075623707439433)"><path d="M0 0 C-5.32 3.29, -22.95 12.71, -31.94 19.74 C-40.94 26.76, -50.31 38.42, -53.98 42.15" stroke="#1e1e1e" stroke-width="1.5" fill="none" stroke-dasharray="8 9"></path></g><g transform="translate(951.2193372341586 158.84415212439222) rotate(0 -26.988715309437225 21.075623707439433)"><path d="M-48.04 27.6 C-49.61 31.44, -51.17 35.27, -53.98 42.15" stroke="#1e1e1e" stroke-width="1.5" fill="none"></path></g><g transform="translate(951.2193372341586 158.84415212439222) rotate(0 -26.988715309437225 21.075623707439433)"><path d="M-40.08 34.82 C-43.74 36.75, -47.41 38.69, -53.98 42.15" stroke="#1e1e1e" stroke-width="1.5" fill="none"></path></g></g><mask></mask><g transform="translate(419.61866225879834 277.15244238552725) rotate(0 51.06997680664065 12.5)"><text x="51.069976806640625" y="0" font-family="Virgil, Segoe UI Emoji" font-size="20px" fill="#1e1e1e" text-anchor="middle" style="white-space: pre;" direction="ltr" dominant-baseline="text-before-edge">50% &lt;= 4</text></g><g transform="translate(549.4242798098976 277.6299947588583) rotate(0 43.699981689453125 12.5)"><text x="43.699981689453125" y="0" font-family="Virgil, Segoe UI Emoji" font-size="20px" fill="#1e1e1e" text-anchor="middle" style="white-space: pre;" direction="ltr" dominant-baseline="text-before-edge">50% &gt; 4</text></g><g stroke-linecap="round"><g transform="translate(869.2839303618194 260.33027259476654) rotate(0 -80.18936818780378 0)"><path d="M0 0 C-26.73 0, -133.65 0, -160.38 0 M0 0 C-26.73 0, -133.65 0, -160.38 0" stroke="#2f9e44" stroke-width="2" fill="none"></path></g></g><mask></mask><g stroke-linecap="round"><g transform="translate(884.262458768574 248.6878090144956) rotate(0 0 11.83203125)"><path d="M0 0 C0 3.94, 0 19.72, 0 23.66 M0 0 C0 3.94, 0 19.72, 0 23.66" stroke="#2f9e44" stroke-width="2" fill="none"></path></g></g><mask></mask><g stroke-linecap="round"><g transform="translate(898.1042411296119 260.7347436821736) rotate(0 0.749143108314172 0)"><path d="M0 0 C0.25 0, 1.25 0, 1.5 0 M0 0 C0.25 0, 1.25 0, 1.5 0" stroke="#2f9e44" stroke-width="2" fill="none"></path></g></g><mask></mask><g transform="translate(770.2312463178965 277.39778514095724) rotate(0 48.54998016357422 12.5)"><text x="48.54998016357422" y="0" font-family="Virgil, Segoe UI Emoji" font-size="20px" fill="#1e1e1e" text-anchor="middle" style="white-space: pre;" direction="ltr" dominant-baseline="text-before-edge">75% &lt;= 7</text></g><g transform="translate(898.104240792437 276.72875886673296) rotate(0 42.91998291015625 12.5)"><text x="42.91998291015625" y="0" font-family="Virgil, Segoe UI Emoji" font-size="20px" fill="#1e1e1e" text-anchor="middle" style="white-space: pre;" direction="ltr" dominant-baseline="text-before-edge">25% &gt; 7</text></g></svg>