<svg version="1.1" xmlns="http://www.w3.org/2000/svg" viewBox="0 0 941.8114160178516 320.9188235022235" width="1883.6228320357031" height="641.837647004447">
  <!-- svg-source:excalidraw -->
  
  <defs>
    <style class="style-fonts">
      @font-face {
        font-family: "Virgil";
        src: url("https://excalidraw.com/Virgil.woff2");
      }
      @font-face {
        font-family: "Cascadia";
        src: url("https://excalidraw.com/Cascadia.woff2");
      }
      @font-face {
        font-family: "Assistant";
        src: url("https://app.excalidraw.com//dist/excalidraw-assets/Assistant-Regular.woff2");
      }
    </style>
    
  </defs>
  <rect x="0" y="0" width="941.8114160178516" height="320.9188235022235" fill="#ffffff"></rect><g stroke-linecap="round"><g transform="translate(25.3671875 303.3328485456872) rotate(0 0 -141.77734375)"><path d="M0 0 C0 -47.26, 0 -236.3, 0 -283.55 M0 0 C0 -47.26, 0 -236.3, 0 -283.55" stroke="#1e1e1e" stroke-width="2" fill="none"></path></g><g transform="translate(25.3671875 303.3328485456872) rotate(0 0 -141.77734375)"><path d="M8.55 -260.06 C6.06 -266.89, 3.58 -273.72, 0 -283.55 M8.55 -260.06 C6.27 -266.34, 3.98 -272.62, 0 -283.55" stroke="#1e1e1e" stroke-width="2" fill="none"></path></g><g transform="translate(25.3671875 303.3328485456872) rotate(0 0 -141.77734375)"><path d="M-8.55 -260.06 C-6.06 -266.89, -3.58 -273.72, 0 -283.55 M-8.55 -260.06 C-6.27 -266.34, -3.98 -272.62, 0 -283.55" stroke="#1e1e1e" stroke-width="2" fill="none"></path></g></g><mask></mask><g stroke-linecap="round"><g transform="translate(10 282.3484735456872) rotate(0 215.640625 0)"><path d="M0 0 C71.88 0, 359.4 0, 431.28 0 M0 0 C71.88 0, 359.4 0, 431.28 0" stroke="#1e1e1e" stroke-width="2" fill="none"></path></g><g transform="translate(10 282.3484735456872) rotate(0 215.640625 0)"><path d="M407.79 8.55 C414.23 6.2, 420.68 3.86, 431.28 0 M407.79 8.55 C413.08 6.62, 418.38 4.7, 431.28 0" stroke="#1e1e1e" stroke-width="2" fill="none"></path></g><g transform="translate(10 282.3484735456872) rotate(0 215.640625 0)"><path d="M407.79 -8.55 C414.23 -6.2, 420.68 -3.86, 431.28 0 M407.79 -8.55 C413.08 -6.62, 418.38 -4.7, 431.28 0" stroke="#1e1e1e" stroke-width="2" fill="none"></path></g></g><mask></mask><g stroke-linecap="round" transform="translate(38.46875 236.42659854568723) rotate(0 8.28515625 22.10546875)"><path d="M1.1 0.96 C1.1 0.96, 1.1 0.96, 1.1 0.96 M1.1 0.96 C1.1 0.96, 1.1 0.96, 1.1 0.96 M0.58 13.75 C3.51 10.38, 6.45 7, 12.39 0.17 M0.58 13.75 C4.35 9.42, 8.11 5.09, 12.39 0.17 M0.71 25.79 C6 19.71, 11.29 13.63, 17.11 6.93 M0.71 25.79 C4.36 21.6, 8 17.41, 17.11 6.93 M0.85 37.84 C5.72 32.23, 10.59 26.63, 16.59 19.72 M0.85 37.84 C5.45 32.54, 10.05 27.25, 16.59 19.72 M5.57 44.59 C8.49 41.24, 11.4 37.89, 16.72 31.76 M5.57 44.59 C8.13 41.65, 10.69 38.7, 16.72 31.76" stroke="#ffffff" stroke-width="1" fill="none"></path><path d="M4.14 0 C5.88 0, 7.62 0, 12.43 0 M4.14 0 C5.82 0, 7.5 0, 12.43 0 M12.43 0 C15.19 0, 16.57 1.38, 16.57 4.14 M12.43 0 C15.19 0, 16.57 1.38, 16.57 4.14 M16.57 4.14 C16.57 12.19, 16.57 20.23, 16.57 40.07 M16.57 4.14 C16.57 14.12, 16.57 24.1, 16.57 40.07 M16.57 40.07 C16.57 42.83, 15.19 44.21, 12.43 44.21 M16.57 40.07 C16.57 42.83, 15.19 44.21, 12.43 44.21 M12.43 44.21 C9.44 44.21, 6.44 44.21, 4.14 44.21 M12.43 44.21 C9.44 44.21, 6.45 44.21, 4.14 44.21 M4.14 44.21 C1.38 44.21, 0 42.83, 0 40.07 M4.14 44.21 C1.38 44.21, 0 42.83, 0 40.07 M0 40.07 C0 29, 0 17.94, 0 4.14 M0 40.07 C0 27.73, 0 15.39, 0 4.14 M0 4.14 C0 1.38, 1.38 0, 4.14 0 M0 4.14 C0 1.38, 1.38 0, 4.14 0" stroke="#1971c2" stroke-width="2" fill="none"></path></g><g stroke-linecap="round" transform="translate(56.625 220.37972354568723) rotate(0 8.322265625 30.12890625)"><path d="M1.11 0.96 C1.11 0.96, 1.11 0.96, 1.11 0.96 M1.11 0.96 C1.11 0.96, 1.11 0.96, 1.11 0.96 M0.58 13.76 C4.57 9.17, 8.56 4.58, 12.39 0.17 M0.58 13.76 C3.5 10.41, 6.41 7.05, 12.39 0.17 M0.72 25.8 C6.91 18.68, 13.1 11.55, 17.12 6.93 M0.72 25.8 C6.21 19.49, 11.7 13.17, 17.12 6.93 M0.85 37.84 C4.34 33.83, 7.82 29.82, 16.6 19.73 M0.85 37.84 C5.66 32.3, 10.48 26.77, 16.6 19.73 M0.98 49.88 C4.52 45.81, 8.06 41.74, 16.73 31.77 M0.98 49.88 C5.81 44.33, 10.63 38.78, 16.73 31.77 M2.43 60.41 C5.71 56.63, 9 52.85, 16.86 43.81 M2.43 60.41 C8.14 53.84, 13.86 47.27, 16.86 43.81 M13.06 60.38 C13.89 59.42, 14.72 58.46, 17 55.85 M13.06 60.38 C14.59 58.62, 16.12 56.85, 17 55.85" stroke="#ffffff" stroke-width="1" fill="none"></path><path d="M4.16 0 C7.11 0, 10.06 0, 12.48 0 M4.16 0 C7.27 0, 10.38 0, 12.48 0 M12.48 0 C15.26 0, 16.64 1.39, 16.64 4.16 M12.48 0 C15.26 0, 16.64 1.39, 16.64 4.16 M16.64 4.16 C16.64 14.93, 16.64 25.7, 16.64 56.1 M16.64 4.16 C16.64 17.09, 16.64 30.02, 16.64 56.1 M16.64 56.1 C16.64 58.87, 15.26 60.26, 12.48 60.26 M16.64 56.1 C16.64 58.87, 15.26 60.26, 12.48 60.26 M12.48 60.26 C10.18 60.26, 7.88 60.26, 4.16 60.26 M12.48 60.26 C9.55 60.26, 6.62 60.26, 4.16 60.26 M4.16 60.26 C1.39 60.26, 0 58.87, 0 56.1 M4.16 60.26 C1.39 60.26, 0 58.87, 0 56.1 M0 56.1 C0 43.56, 0 31.03, 0 4.16 M0 56.1 C0 43.05, 0 30.01, 0 4.16 M0 4.16 C0 1.39, 1.39 0, 4.16 0 M0 4.16 C0 1.39, 1.39 0, 4.16 0" stroke="#1971c2" stroke-width="2" fill="none"></path></g><g stroke-linecap="round" transform="translate(76.4453125 201.14925479568723) rotate(0 8.154296875 39.744140625)"><path d="M1.09 0.94 C1.09 0.94, 1.09 0.94, 1.09 0.94 M1.09 0.94 C1.09 0.94, 1.09 0.94, 1.09 0.94 M0.56 13.74 C3.01 10.93, 5.45 8.11, 12.37 0.15 M0.56 13.74 C3.07 10.86, 5.57 7.98, 12.37 0.15 M0.7 25.78 C5.21 20.58, 9.73 15.39, 16.44 7.67 M0.7 25.78 C5.05 20.77, 9.4 15.76, 16.44 7.67 M0.83 37.82 C3.98 34.19, 7.13 30.57, 16.57 19.71 M0.83 37.82 C7.11 30.59, 13.4 23.36, 16.57 19.71 M0.31 50.62 C5.97 44.1, 11.63 37.59, 16.71 31.75 M0.31 50.62 C6.14 43.9, 11.98 37.19, 16.71 31.75 M0.44 62.66 C5.53 56.8, 10.63 50.94, 16.84 43.79 M0.44 62.66 C4.19 58.34, 7.95 54.02, 16.84 43.79 M0.57 74.7 C6.02 68.43, 11.47 62.16, 16.97 55.83 M0.57 74.7 C4.68 69.97, 8.78 65.25, 16.97 55.83 M6.61 79.95 C10.05 75.99, 13.49 72.03, 16.45 68.63 M6.61 79.95 C9.03 77.17, 11.44 74.39, 16.45 68.63" stroke="#ffffff" stroke-width="1" fill="none"></path><path d="M4.08 0 C7.08 0, 10.09 0, 12.23 0 M4.08 0 C6.78 0, 9.49 0, 12.23 0 M12.23 0 C14.95 0, 16.31 1.36, 16.31 4.08 M12.23 0 C14.95 0, 16.31 1.36, 16.31 4.08 M16.31 4.08 C16.31 20.87, 16.31 37.67, 16.31 75.41 M16.31 4.08 C16.31 31, 16.31 57.93, 16.31 75.41 M16.31 75.41 C16.31 78.13, 14.95 79.49, 12.23 79.49 M16.31 75.41 C16.31 78.13, 14.95 79.49, 12.23 79.49 M12.23 79.49 C9.8 79.49, 7.38 79.49, 4.08 79.49 M12.23 79.49 C10.01 79.49, 7.78 79.49, 4.08 79.49 M4.08 79.49 C1.36 79.49, 0 78.13, 0 75.41 M4.08 79.49 C1.36 79.49, 0 78.13, 0 75.41 M0 75.41 C0 55.62, 0 35.83, 0 4.08 M0 75.41 C0 61.05, 0 46.7, 0 4.08 M0 4.08 C0 1.36, 1.36 0, 4.08 0 M0 4.08 C0 1.36, 1.36 0, 4.08 0" stroke="#1971c2" stroke-width="2" fill="none"></path></g><g stroke-linecap="round" transform="translate(96.87890625 175.38362979568723) rotate(0 7.8515625 52.626953125)"><path d="M1.04 0.91 C1.04 0.91, 1.04 0.91, 1.04 0.91 M1.04 0.91 C1.04 0.91, 1.04 0.91, 1.04 0.91 M0.52 13.7 C4.57 9.05, 8.61 4.4, 12.33 0.12 M0.52 13.7 C3.44 10.35, 6.35 7, 12.33 0.12 M0.66 25.74 C6.1 19.48, 11.55 13.21, 16.4 7.63 M0.66 25.74 C5.96 19.64, 11.27 13.54, 16.4 7.63 M0.79 37.79 C4.19 33.87, 7.59 29.96, 16.53 19.67 M0.79 37.79 C5.4 32.48, 10.01 27.18, 16.53 19.67 M0.92 49.83 C7.21 42.59, 13.5 35.35, 16.67 31.71 M0.92 49.83 C5.76 44.27, 10.59 38.71, 16.67 31.71 M0.4 62.62 C5.95 56.23, 11.51 49.84, 16.14 44.51 M0.4 62.62 C6.06 56.11, 11.72 49.6, 16.14 44.51 M0.53 74.66 C6.81 67.44, 13.08 60.23, 16.28 56.55 M0.53 74.66 C4.65 69.92, 8.77 65.19, 16.28 56.55 M0.66 86.7 C6.66 79.8, 12.66 72.9, 16.41 68.59 M0.66 86.7 C5.37 81.29, 10.08 75.87, 16.41 68.59 M0.8 98.74 C5.89 92.89, 10.98 87.03, 16.54 80.63 M0.8 98.74 C5.15 93.74, 9.5 88.74, 16.54 80.63 M5.52 105.5 C8.67 101.88, 11.82 98.25, 16.68 92.67 M5.52 105.5 C9.54 100.88, 13.55 96.27, 16.68 92.67" stroke="#ffffff" stroke-width="1" fill="none"></path><path d="M3.93 0 C7.03 0, 10.13 0, 11.78 0 M3.93 0 C5.52 0, 7.12 0, 11.78 0 M11.78 0 C14.39 0, 15.7 1.31, 15.7 3.93 M11.78 0 C14.39 0, 15.7 1.31, 15.7 3.93 M15.7 3.93 C15.7 26.38, 15.7 48.84, 15.7 101.33 M15.7 3.93 C15.7 41.9, 15.7 79.87, 15.7 101.33 M15.7 101.33 C15.7 103.95, 14.39 105.25, 11.78 105.25 M15.7 101.33 C15.7 103.95, 14.39 105.25, 11.78 105.25 M11.78 105.25 C9.41 105.25, 7.05 105.25, 3.93 105.25 M11.78 105.25 C9.6 105.25, 7.42 105.25, 3.93 105.25 M3.93 105.25 C1.31 105.25, 0 103.95, 0 101.33 M3.93 105.25 C1.31 105.25, 0 103.95, 0 101.33 M0 101.33 C0 65.48, 0 29.63, 0 3.93 M0 101.33 C0 78.07, 0 54.82, 0 3.93 M0 3.93 C0 1.31, 1.31 0, 3.93 0 M0 3.93 C0 1.31, 1.31 0, 3.93 0" stroke="#1971c2" stroke-width="2" fill="none"></path></g><g stroke-linecap="round" transform="translate(117.0859375 148.77816104568723) rotate(0 8.255859375 65.9296875)"><path d="M1.1 0.96 C1.1 0.96, 1.1 0.96, 1.1 0.96 M1.1 0.96 C1.1 0.96, 1.1 0.96, 1.1 0.96 M0.58 13.75 C3.55 10.33, 6.53 6.9, 12.38 0.17 M0.58 13.75 C4.21 9.57, 7.84 5.39, 12.38 0.17 M0.71 25.79 C6.08 19.61, 11.46 13.43, 16.45 7.68 M0.71 25.79 C5.13 20.71, 9.54 15.63, 16.45 7.68 M0.84 37.83 C5.86 32.06, 10.88 26.28, 16.59 19.72 M0.84 37.83 C4.92 33.14, 9 28.45, 16.59 19.72 M0.32 50.63 C5.03 45.21, 9.74 39.8, 16.72 31.76 M0.32 50.63 C6.01 44.09, 11.69 37.54, 16.72 31.76 M0.45 62.67 C6.63 55.57, 12.8 48.46, 16.85 43.8 M0.45 62.67 C5.62 56.73, 10.78 50.79, 16.85 43.8 M0.59 74.71 C3.9 70.89, 7.22 67.08, 16.99 55.84 M0.59 74.71 C4.65 70.04, 8.71 65.37, 16.99 55.84 M0.72 86.75 C5.77 80.94, 10.81 75.14, 16.46 68.64 M0.72 86.75 C6.78 79.78, 12.83 72.81, 16.46 68.64 M0.85 98.79 C5.33 93.64, 9.81 88.49, 16.6 80.68 M0.85 98.79 C6.62 92.16, 12.38 85.53, 16.6 80.68 M0.33 111.59 C5.25 105.93, 10.17 100.26, 16.73 92.72 M0.33 111.59 C4.84 106.39, 9.36 101.2, 16.73 92.72 M0.46 123.63 C5.11 118.28, 9.77 112.92, 16.86 104.76 M0.46 123.63 C5.1 118.3, 9.73 112.97, 16.86 104.76 M3.88 131.9 C8.03 127.11, 12.19 122.33, 17 116.8 M3.88 131.9 C7.68 127.52, 11.48 123.15, 17 116.8 M14.51 131.86 C14.9 131.4, 15.3 130.94, 15.82 130.35 M14.51 131.86 C15 131.3, 15.49 130.73, 15.82 130.35" stroke="#ffffff" stroke-width="1" fill="none"></path><path d="M4.13 0 C6.78 0, 9.43 0, 12.38 0 M4.13 0 C6.37 0, 8.61 0, 12.38 0 M12.38 0 C15.14 0, 16.51 1.38, 16.51 4.13 M12.38 0 C15.14 0, 16.51 1.38, 16.51 4.13 M16.51 4.13 C16.51 30.86, 16.51 57.58, 16.51 127.73 M16.51 4.13 C16.51 33.69, 16.51 63.25, 16.51 127.73 M16.51 127.73 C16.51 130.48, 15.14 131.86, 12.38 131.86 M16.51 127.73 C16.51 130.48, 15.14 131.86, 12.38 131.86 M12.38 131.86 C9.74 131.86, 7.09 131.86, 4.13 131.86 M12.38 131.86 C10.55 131.86, 8.72 131.86, 4.13 131.86 M4.13 131.86 C1.38 131.86, 0 130.48, 0 127.73 M4.13 131.86 C1.38 131.86, 0 130.48, 0 127.73 M0 127.73 C0 94.84, 0 61.96, 0 4.13 M0 127.73 C0 96.81, 0 65.88, 0 4.13 M0 4.13 C0 1.38, 1.38 0, 4.13 0 M0 4.13 C0 1.38, 1.38 0, 4.13 0" stroke="#1971c2" stroke-width="2" fill="none"></path></g><g stroke-linecap="round" transform="translate(137.2421875 166.41097354568723) rotate(0 8.310546875 57.11328125)"><path d="M1.11 0.96 C1.11 0.96, 1.11 0.96, 1.11 0.96 M1.11 0.96 C1.11 0.96, 1.11 0.96, 1.11 0.96 M0.58 13.76 C3.54 10.36, 6.49 6.96, 12.39 0.17 M0.58 13.76 C3.97 9.86, 7.35 5.97, 12.39 0.17 M0.72 25.8 C6.07 19.64, 11.42 13.48, 16.46 7.68 M0.72 25.8 C5.64 20.13, 10.57 14.47, 16.46 7.68 M0.85 37.84 C6.23 31.65, 11.6 25.47, 16.59 19.73 M0.85 37.84 C4.51 33.63, 8.16 29.43, 16.59 19.73 M0.33 50.63 C3.83 46.6, 7.33 42.57, 16.73 31.77 M0.33 50.63 C5 45.26, 9.68 39.88, 16.73 31.77 M0.46 62.68 C4.66 57.84, 8.86 53.01, 16.86 43.81 M0.46 62.68 C4.85 57.63, 9.24 52.58, 16.86 43.81 M0.59 74.72 C6.59 67.81, 12.6 60.91, 16.99 55.85 M0.59 74.72 C6.76 67.63, 12.92 60.54, 16.99 55.85 M0.73 86.76 C5.34 81.45, 9.95 76.14, 16.47 68.64 M0.73 86.76 C4.65 82.24, 8.58 77.73, 16.47 68.64 M0.86 98.8 C5.54 93.42, 10.22 88.03, 16.6 80.68 M0.86 98.8 C4.25 94.9, 7.63 91.01, 16.6 80.68 M0.34 111.59 C3.68 107.75, 7.03 103.9, 16.74 92.73 M0.34 111.59 C5.76 105.35, 11.19 99.1, 16.74 92.73 M8.34 114.58 C10.57 112.02, 12.79 109.46, 16.87 104.77 M8.34 114.58 C10.3 112.32, 12.26 110.07, 16.87 104.77" stroke="#ffffff" stroke-width="1" fill="none"></path><path d="M4.16 0 C7.45 0, 10.75 0, 12.47 0 M4.16 0 C6.81 0, 9.46 0, 12.47 0 M12.47 0 C15.24 0, 16.62 1.39, 16.62 4.16 M12.47 0 C15.24 0, 16.62 1.39, 16.62 4.16 M16.62 4.16 C16.62 38.9, 16.62 73.64, 16.62 110.07 M16.62 4.16 C16.62 37.3, 16.62 70.45, 16.62 110.07 M16.62 110.07 C16.62 112.84, 15.24 114.23, 12.47 114.23 M16.62 110.07 C16.62 112.84, 15.24 114.23, 12.47 114.23 M12.47 114.23 C9.45 114.23, 6.44 114.23, 4.16 114.23 M12.47 114.23 C9.19 114.23, 5.92 114.23, 4.16 114.23 M4.16 114.23 C1.39 114.23, 0 112.84, 0 110.07 M4.16 114.23 C1.39 114.23, 0 112.84, 0 110.07 M0 110.07 C0 70.2, 0 30.32, 0 4.16 M0 110.07 C0 76.72, 0 43.36, 0 4.16 M0 4.16 C0 1.39, 1.39 0, 4.16 0 M0 4.16 C0 1.39, 1.39 0, 4.16 0" stroke="#1971c2" stroke-width="2" fill="none"></path></g><g stroke-linecap="round" transform="translate(158.66796875 179.83284854568723) rotate(0 8.115234375 50.40234375)"><path d="M1.08 0.94 C1.08 0.94, 1.08 0.94, 1.08 0.94 M1.08 0.94 C1.08 0.94, 1.08 0.94, 1.08 0.94 M0.56 13.73 C4.92 8.72, 9.28 3.7, 12.37 0.15 M0.56 13.73 C3.77 10.03, 6.99 6.33, 12.37 0.15 M0.69 25.78 C5.63 20.09, 10.58 14.4, 16.44 7.66 M0.69 25.78 C3.91 22.07, 7.13 18.37, 16.44 7.66 M0.82 37.82 C4.96 33.06, 9.1 28.3, 16.57 19.7 M0.82 37.82 C5.57 32.36, 10.31 26.91, 16.57 19.7 M0.3 50.61 C3.61 46.81, 6.91 43.01, 16.7 31.74 M0.3 50.61 C6.72 43.23, 13.14 35.84, 16.7 31.74 M0.43 62.65 C6.6 55.56, 12.76 48.47, 16.84 43.78 M0.43 62.65 C4.39 58.1, 8.34 53.55, 16.84 43.78 M0.57 74.69 C6.03 68.4, 11.5 62.11, 16.31 56.58 M0.57 74.69 C6.82 67.5, 13.08 60.3, 16.31 56.58 M0.7 86.73 C4.63 82.22, 8.55 77.7, 16.45 68.62 M0.7 86.73 C4.35 82.54, 8 78.34, 16.45 68.62 M0.83 98.78 C4.67 94.36, 8.52 89.94, 16.58 80.66 M0.83 98.78 C6.89 91.8, 12.95 84.83, 16.58 80.66 M9.5 101 C12.22 97.87, 14.94 94.74, 16.71 92.7 M9.5 101 C11.01 99.27, 12.52 97.53, 16.71 92.7" stroke="#ffffff" stroke-width="1" fill="none"></path><path d="M4.06 0 C6.68 0, 9.3 0, 12.17 0 M4.06 0 C7.16 0, 10.26 0, 12.17 0 M12.17 0 C14.88 0, 16.23 1.35, 16.23 4.06 M12.17 0 C14.88 0, 16.23 1.35, 16.23 4.06 M16.23 4.06 C16.23 22.81, 16.23 41.56, 16.23 96.75 M16.23 4.06 C16.23 27.01, 16.23 49.95, 16.23 96.75 M16.23 96.75 C16.23 99.45, 14.88 100.8, 12.17 100.8 M16.23 96.75 C16.23 99.45, 14.88 100.8, 12.17 100.8 M12.17 100.8 C10.14 100.8, 8.11 100.8, 4.06 100.8 M12.17 100.8 C9.85 100.8, 7.52 100.8, 4.06 100.8 M4.06 100.8 C1.35 100.8, 0 99.45, 0 96.75 M4.06 100.8 C1.35 100.8, 0 99.45, 0 96.75 M0 96.75 C0 62.21, 0 27.68, 0 4.06 M0 96.75 C0 78.12, 0 59.49, 0 4.06 M0 4.06 C0 1.35, 1.35 0, 4.06 0 M0 4.06 C0 1.35, 1.35 0, 4.06 0" stroke="#1971c2" stroke-width="2" fill="none"></path></g><g stroke-linecap="round" transform="translate(180.69921875 196.38362979568723) rotate(0 7.328125 42.126953125)"><path d="M0.98 0.85 C0.98 0.85, 0.98 0.85, 0.98 0.85 M0.98 0.85 C0.98 0.85, 0.98 0.85, 0.98 0.85 M0.45 13.64 C3.36 10.3, 6.27 6.95, 11.61 0.81 M0.45 13.64 C3.02 10.69, 5.58 7.75, 11.61 0.81 M0.59 25.68 C6.27 19.14, 11.96 12.6, 15.02 9.08 M0.59 25.68 C5.82 19.66, 11.06 13.63, 15.02 9.08 M0.72 37.73 C4.53 33.34, 8.34 28.96, 15.15 21.12 M0.72 37.73 C4.24 33.68, 7.76 29.63, 15.15 21.12 M0.85 49.77 C5.5 44.42, 10.14 39.08, 15.29 33.16 M0.85 49.77 C5.07 44.91, 9.29 40.06, 15.29 33.16 M0.98 61.81 C4.82 57.39, 8.66 52.97, 15.42 45.2 M0.98 61.81 C4.99 57.2, 9 52.59, 15.42 45.2 M0.46 74.6 C4.96 69.42, 9.47 64.24, 15.55 57.24 M0.46 74.6 C5.94 68.3, 11.42 62, 15.55 57.24 M2.56 84.38 C7.3 78.93, 12.04 73.48, 15.03 70.04 M2.56 84.38 C6.91 79.38, 11.26 74.37, 15.03 70.04" stroke="#ffffff" stroke-width="1" fill="none"></path><path d="M3.66 0 C6.32 0, 8.98 0, 10.99 0 M3.66 0 C6.15 0, 8.64 0, 10.99 0 M10.99 0 C13.43 0, 14.66 1.22, 14.66 3.66 M10.99 0 C13.43 0, 14.66 1.22, 14.66 3.66 M14.66 3.66 C14.66 21.3, 14.66 38.95, 14.66 80.59 M14.66 3.66 C14.66 25.33, 14.66 47, 14.66 80.59 M14.66 80.59 C14.66 83.03, 13.43 84.25, 10.99 84.25 M14.66 80.59 C14.66 83.03, 13.43 84.25, 10.99 84.25 M10.99 84.25 C8.17 84.25, 5.34 84.25, 3.66 84.25 M10.99 84.25 C8.06 84.25, 5.13 84.25, 3.66 84.25 M3.66 84.25 C1.22 84.25, 0 83.03, 0 80.59 M3.66 84.25 C1.22 84.25, 0 83.03, 0 80.59 M0 80.59 C0 65.09, 0 49.59, 0 3.66 M0 80.59 C0 64.21, 0 47.83, 0 3.66 M0 3.66 C0 1.22, 1.22 0, 3.66 0 M0 3.66 C0 1.22, 1.22 0, 3.66 0" stroke="#1971c2" stroke-width="2" fill="none"></path></g><g stroke-linecap="round" transform="translate(199.71484375 211.03987979568723) rotate(0 7.8046875 34.798828125)"><path d="M1.04 0.9 C1.04 0.9, 1.04 0.9, 1.04 0.9 M1.04 0.9 C1.04 0.9, 1.04 0.9, 1.04 0.9 M0.52 13.7 C4.37 9.27, 8.22 4.83, 12.32 0.11 M0.52 13.7 C3.36 10.43, 6.2 7.16, 12.32 0.11 M0.65 25.74 C5.78 19.83, 10.92 13.93, 15.74 8.38 M0.65 25.74 C4.49 21.32, 8.33 16.9, 15.74 8.38 M0.78 37.78 C6.26 31.48, 11.73 25.19, 15.87 20.42 M0.78 37.78 C5.6 32.24, 10.41 26.7, 15.87 20.42 M0.92 49.82 C5.66 44.36, 10.41 38.9, 15.35 33.22 M0.92 49.82 C6.39 43.52, 11.87 37.22, 15.35 33.22 M0.39 62.62 C4.19 58.24, 8 53.87, 15.48 45.26 M0.39 62.62 C6.42 55.69, 12.44 48.76, 15.48 45.26 M5.12 69.37 C8.06 65.99, 11 62.61, 15.61 57.3 M5.12 69.37 C7.27 66.9, 9.42 64.43, 15.61 57.3" stroke="#ffffff" stroke-width="1" fill="none"></path><path d="M3.9 0 C5.53 0, 7.17 0, 11.71 0 M3.9 0 C6.37 0, 8.84 0, 11.71 0 M11.71 0 C14.31 0, 15.61 1.3, 15.61 3.9 M11.71 0 C14.31 0, 15.61 1.3, 15.61 3.9 M15.61 3.9 C15.61 16.82, 15.61 29.73, 15.61 65.7 M15.61 3.9 C15.61 26.51, 15.61 49.12, 15.61 65.7 M15.61 65.7 C15.61 68.3, 14.31 69.6, 11.71 69.6 M15.61 65.7 C15.61 68.3, 14.31 69.6, 11.71 69.6 M11.71 69.6 C9.65 69.6, 7.59 69.6, 3.9 69.6 M11.71 69.6 C9.8 69.6, 7.9 69.6, 3.9 69.6 M3.9 69.6 C1.3 69.6, 0 68.3, 0 65.7 M3.9 69.6 C1.3 69.6, 0 68.3, 0 65.7 M0 65.7 C0 52.15, 0 38.61, 0 3.9 M0 65.7 C0 44.64, 0 23.58, 0 3.9 M0 3.9 C0 1.3, 1.3 0, 3.9 0 M0 3.9 C0 1.3, 1.3 0, 3.9 0" stroke="#1971c2" stroke-width="2" fill="none"></path></g><g stroke-linecap="round" transform="translate(218.90234375 221.06722354568723) rotate(0 8.494140625 29.78515625)"><path d="M1.13 0.98 C1.13 0.98, 1.13 0.98, 1.13 0.98 M1.13 0.98 C1.13 0.98, 1.13 0.98, 1.13 0.98 M0.61 13.78 C4.26 9.58, 7.91 5.38, 12.42 0.19 M0.61 13.78 C5.22 8.48, 9.83 3.17, 12.42 0.19 M0.74 25.82 C6.67 19, 12.6 12.18, 17.14 6.95 M0.74 25.82 C4.98 20.95, 9.21 16.07, 17.14 6.95 M0.87 37.86 C4.68 33.48, 8.48 29.11, 17.28 18.99 M0.87 37.86 C6.11 31.84, 11.34 25.82, 17.28 18.99 M1.01 49.9 C4.62 45.74, 8.24 41.58, 17.41 31.03 M1.01 49.9 C6.18 43.94, 11.36 37.99, 17.41 31.03 M3.11 59.68 C8.35 53.65, 13.59 47.62, 16.89 43.83 M3.11 59.68 C7.72 54.38, 12.33 49.07, 16.89 43.83 M13.74 59.64 C14.97 58.23, 16.19 56.82, 17.02 55.87 M13.74 59.64 C14.56 58.7, 15.37 57.76, 17.02 55.87" stroke="#ffffff" stroke-width="1" fill="none"></path><path d="M4.25 0 C6.48 0, 8.71 0, 12.74 0 M4.25 0 C6.7 0, 9.15 0, 12.74 0 M12.74 0 C15.57 0, 16.99 1.42, 16.99 4.25 M12.74 0 C15.57 0, 16.99 1.42, 16.99 4.25 M16.99 4.25 C16.99 21.14, 16.99 38.04, 16.99 55.32 M16.99 4.25 C16.99 18.98, 16.99 33.71, 16.99 55.32 M16.99 55.32 C16.99 58.15, 15.57 59.57, 12.74 59.57 M16.99 55.32 C16.99 58.15, 15.57 59.57, 12.74 59.57 M12.74 59.57 C9.64 59.57, 6.54 59.57, 4.25 59.57 M12.74 59.57 C9.47 59.57, 6.19 59.57, 4.25 59.57 M4.25 59.57 C1.42 59.57, 0 58.15, 0 55.32 M4.25 59.57 C1.42 59.57, 0 58.15, 0 55.32 M0 55.32 C0 44.61, 0 33.9, 0 4.25 M0 55.32 C0 35.72, 0 16.11, 0 4.25 M0 4.25 C0 1.42, 1.42 0, 4.25 0 M0 4.25 C0 1.42, 1.42 0, 4.25 0" stroke="#1971c2" stroke-width="2" fill="none"></path></g><g stroke-linecap="round" transform="translate(240.4375 229.40706729568723) rotate(0 8.009765625 25.615234375)"><path d="M1.07 0.93 C1.07 0.93, 1.07 0.93, 1.07 0.93 M1.07 0.93 C1.07 0.93, 1.07 0.93, 1.07 0.93 M0.54 13.72 C3.79 9.99, 7.03 6.26, 12.35 0.14 M0.54 13.72 C3.5 10.32, 6.46 6.91, 12.35 0.14 M0.68 25.76 C4.64 21.2, 8.61 16.63, 15.77 8.4 M0.68 25.76 C4.27 21.63, 7.85 17.51, 15.77 8.4 M0.81 37.8 C5.09 32.88, 9.37 27.95, 15.9 20.45 M0.81 37.8 C3.93 34.21, 7.06 30.61, 15.9 20.45 M0.94 49.84 C5.07 45.1, 9.2 40.35, 16.03 32.49 M0.94 49.84 C5.12 45.03, 9.31 40.22, 16.03 32.49 M10.26 51.32 C12.02 49.3, 13.77 47.28, 16.17 44.53 M10.26 51.32 C12.24 49.04, 14.22 46.76, 16.17 44.53" stroke="#ffffff" stroke-width="1" fill="none"></path><path d="M4 0 C6.65 0, 9.29 0, 12.01 0 M4 0 C5.81 0, 7.61 0, 12.01 0 M12.01 0 C14.68 0, 16.02 1.33, 16.02 4 M12.01 0 C14.68 0, 16.02 1.33, 16.02 4 M16.02 4 C16.02 12.95, 16.02 21.9, 16.02 47.23 M16.02 4 C16.02 17.05, 16.02 30.09, 16.02 47.23 M16.02 47.23 C16.02 49.9, 14.68 51.23, 12.01 51.23 M16.02 47.23 C16.02 49.9, 14.68 51.23, 12.01 51.23 M12.01 51.23 C9.12 51.23, 6.22 51.23, 4 51.23 M12.01 51.23 C9.95 51.23, 7.88 51.23, 4 51.23 M4 51.23 C1.33 51.23, 0 49.9, 0 47.23 M4 51.23 C1.33 51.23, 0 49.9, 0 47.23 M0 47.23 C0 34.39, 0 21.56, 0 4 M0 47.23 C0 34.15, 0 21.07, 0 4 M0 4 C0 1.33, 1.33 0, 4 0 M0 4 C0 1.33, 1.33 0, 4 0" stroke="#1971c2" stroke-width="2" fill="none"></path></g><g stroke-linecap="round" transform="translate(260.85546875 242.34456729568723) rotate(0 8.28515625 19.146484375)"><path d="M1.1 0.96 C1.1 0.96, 1.1 0.96, 1.1 0.96 M1.1 0.96 C1.1 0.96, 1.1 0.96, 1.1 0.96 M0.58 13.75 C3.93 9.9, 7.29 6.04, 12.39 0.17 M0.58 13.75 C5.12 8.53, 9.67 3.3, 12.39 0.17 M0.71 25.79 C6.74 18.87, 12.76 11.94, 17.11 6.93 M0.71 25.79 C7 18.56, 13.29 11.33, 17.11 6.93 M1.5 37.08 C5.95 31.96, 10.4 26.84, 16.59 19.72 M1.5 37.08 C6.57 31.25, 11.63 25.42, 16.59 19.72 M10.82 38.56 C12.27 36.89, 13.72 35.22, 16.72 31.76 M10.82 38.56 C12.89 36.18, 14.95 33.8, 16.72 31.76" stroke="#ffffff" stroke-width="1" fill="none"></path><path d="M4.14 0 C6.3 0, 8.46 0, 12.43 0 M4.14 0 C7.09 0, 10.04 0, 12.43 0 M12.43 0 C15.19 0, 16.57 1.38, 16.57 4.14 M12.43 0 C15.19 0, 16.57 1.38, 16.57 4.14 M16.57 4.14 C16.57 14.71, 16.57 25.27, 16.57 34.15 M16.57 4.14 C16.57 14, 16.57 23.85, 16.57 34.15 M16.57 34.15 C16.57 36.91, 15.19 38.29, 12.43 38.29 M16.57 34.15 C16.57 36.91, 15.19 38.29, 12.43 38.29 M12.43 38.29 C10.44 38.29, 8.46 38.29, 4.14 38.29 M12.43 38.29 C10.17 38.29, 7.91 38.29, 4.14 38.29 M4.14 38.29 C1.38 38.29, 0 36.91, 0 34.15 M4.14 38.29 C1.38 38.29, 0 36.91, 0 34.15 M0 34.15 C0 27.46, 0 20.77, 0 4.14 M0 34.15 C0 23.46, 0 12.76, 0 4.14 M0 4.14 C0 1.38, 1.38 0, 4.14 0 M0 4.14 C0 1.38, 1.38 0, 4.14 0" stroke="#1971c2" stroke-width="2" fill="none"></path></g><g stroke-linecap="round" transform="translate(282.21484375 252.05941104568723) rotate(0 8.28515625 14.2890625)"><path d="M1.1 0.96 C1.1 0.96, 1.1 0.96, 1.1 0.96 M1.1 0.96 C1.1 0.96, 1.1 0.96, 1.1 0.96 M0.58 13.75 C3.47 10.43, 6.36 7.1, 12.39 0.17 M0.58 13.75 C3.82 10.03, 7.06 6.3, 12.39 0.17 M0.06 26.55 C4.02 21.99, 7.98 17.43, 17.11 6.93 M0.06 26.55 C5.09 20.76, 10.12 14.97, 17.11 6.93 M9.37 28.02 C12.11 24.88, 14.85 21.73, 17.25 18.97 M9.37 28.02 C12.2 24.77, 15.03 21.51, 17.25 18.97" stroke="#ffffff" stroke-width="1" fill="none"></path><path d="M4.14 0 C7 0, 9.86 0, 12.43 0 M4.14 0 C6.36 0, 8.59 0, 12.43 0 M12.43 0 C15.19 0, 16.57 1.38, 16.57 4.14 M12.43 0 C15.19 0, 16.57 1.38, 16.57 4.14 M16.57 4.14 C16.57 10.18, 16.57 16.22, 16.57 24.44 M16.57 4.14 C16.57 10.95, 16.57 17.75, 16.57 24.44 M16.57 24.44 C16.57 27.2, 15.19 28.58, 12.43 28.58 M16.57 24.44 C16.57 27.2, 15.19 28.58, 12.43 28.58 M12.43 28.58 C9.22 28.58, 6.01 28.58, 4.14 28.58 M12.43 28.58 C9.16 28.58, 5.89 28.58, 4.14 28.58 M4.14 28.58 C1.38 28.58, 0 27.2, 0 24.44 M4.14 28.58 C1.38 28.58, 0 27.2, 0 24.44 M0 24.44 C0 16.41, 0 8.38, 0 4.14 M0 24.44 C0 17.56, 0 10.68, 0 4.14 M0 4.14 C0 1.38, 1.38 0, 4.14 0 M0 4.14 C0 1.38, 1.38 0, 4.14 0" stroke="#1971c2" stroke-width="2" fill="none"></path></g><g stroke-linecap="round" transform="translate(304.23046875 264.8250360456872) rotate(0 8.140625 7.90625)"><path d="M-0.07 2.59 C-0.07 2.59, -0.07 2.59, -0.07 2.59 M-0.07 2.59 C-0.07 2.59, -0.07 2.59, -0.07 2.59 M0.72 13.87 C3.8 10.34, 6.87 6.8, 12.53 0.29 M0.72 13.87 C4.24 9.83, 7.76 5.78, 12.53 0.29 M9.38 16.1 C12 13.09, 14.62 10.08, 16.6 7.8 M9.38 16.1 C12.24 12.82, 15.09 9.54, 16.6 7.8" stroke="#ffffff" stroke-width="1" fill="none"></path><path d="M3.95 0 C5.91 0, 7.88 0, 12.33 0 M3.95 0 C5.85 0, 7.74 0, 12.33 0 M12.33 0 C14.96 0, 16.28 1.32, 16.28 3.95 M12.33 0 C14.96 0, 16.28 1.32, 16.28 3.95 M16.28 3.95 C16.28 6.7, 16.28 9.45, 16.28 11.86 M16.28 3.95 C16.28 6.79, 16.28 9.64, 16.28 11.86 M16.28 11.86 C16.28 14.49, 14.96 15.81, 12.33 15.81 M16.28 11.86 C16.28 14.49, 14.96 15.81, 12.33 15.81 M12.33 15.81 C9.99 15.81, 7.65 15.81, 3.95 15.81 M12.33 15.81 C10.43 15.81, 8.54 15.81, 3.95 15.81 M3.95 15.81 C1.32 15.81, 0 14.49, 0 11.86 M3.95 15.81 C1.32 15.81, 0 14.49, 0 11.86 M0 11.86 C0 9.6, 0 7.33, 0 3.95 M0 11.86 C0 9.19, 0 6.52, 0 3.95 M0 3.95 C0 1.32, 1.32 0, 3.95 0 M0 3.95 C0 1.32, 1.32 0, 3.95 0" stroke="#1971c2" stroke-width="2" fill="none"></path></g><g stroke-linecap="round"><g transform="translate(123.72265625 96.04769229568723) rotate(0 0 107.43556560326815)"><path d="M0 0 C0 35.81, 0 179.06, 0 214.87" stroke="#e03131" stroke-width="2.5" fill="none" stroke-dasharray="8 10"></path></g></g><mask></mask><g transform="translate(93.72268676757812 65.10468478797469) rotate(0 29.999969482421875 12.5)"><text x="29.999969482421875" y="0" font-family="Virgil, Segoe UI Emoji" font-size="20px" fill="#e03131" text-anchor="middle" style="white-space: pre;" direction="ltr" dominant-baseline="text-before-edge">Modus</text></g><g stroke-linecap="round" transform="translate(323.9375 270.7742547956872) rotate(0 8.017578125 5.296875)"><path d="M0.7 0.61 C0.7 0.61, 0.7 0.61, 0.7 0.61 M0.7 0.61 C0.7 0.61, 0.7 0.61, 0.7 0.61 M2.15 11.14 C4.86 8.03, 7.56 4.92, 11.34 0.58 M2.15 11.14 C4.68 8.23, 7.21 5.32, 11.34 0.58 M12.78 11.11 C13.7 10.05, 14.62 9, 15.4 8.09 M12.78 11.11 C13.78 9.96, 14.79 8.8, 15.4 8.09" stroke="#ffffff" stroke-width="1" fill="none"></path><path d="M2.65 0 C6.19 0, 9.72 0, 13.39 0 M2.65 0 C6.29 0, 9.93 0, 13.39 0 M13.39 0 C15.15 0, 16.04 0.88, 16.04 2.65 M13.39 0 C15.15 0, 16.04 0.88, 16.04 2.65 M16.04 2.65 C16.04 3.78, 16.04 4.91, 16.04 7.95 M16.04 2.65 C16.04 4.43, 16.04 6.22, 16.04 7.95 M16.04 7.95 C16.04 9.71, 15.15 10.59, 13.39 10.59 M16.04 7.95 C16.04 9.71, 15.15 10.59, 13.39 10.59 M13.39 10.59 C10.3 10.59, 7.21 10.59, 2.65 10.59 M13.39 10.59 C11.08 10.59, 8.78 10.59, 2.65 10.59 M2.65 10.59 C0.88 10.59, 0 9.71, 0 7.95 M2.65 10.59 C0.88 10.59, 0 9.71, 0 7.95 M0 7.95 C0 6.55, 0 5.16, 0 2.65 M0 7.95 C0 6.69, 0 5.43, 0 2.65 M0 2.65 C0 0.88, 0.88 0, 2.65 0 M0 2.65 C0 0.88, 0.88 0, 2.65 0" stroke="#1971c2" stroke-width="2" fill="none"></path></g><g stroke-linecap="round" transform="translate(343.453125 273.4422235456872) rotate(0 8.140625 3.517578125)"><path d="M0.47 0.41 C0.47 0.41, 0.47 0.41, 0.47 0.41 M0.47 0.41 C0.47 0.41, 0.47 0.41, 0.47 0.41 M5.19 7.16 C7.06 5.01, 8.93 2.86, 11.1 0.37 M5.19 7.16 C6.6 5.55, 8 3.94, 11.1 0.37" stroke="#ffffff" stroke-width="1" fill="none"></path><path d="M1.76 0 C6.27 0, 10.77 0, 14.52 0 M1.76 0 C4.39 0, 7.03 0, 14.52 0 M14.52 0 C15.69 0, 16.28 0.59, 16.28 1.76 M14.52 0 C15.69 0, 16.28 0.59, 16.28 1.76 M16.28 1.76 C16.28 3.1, 16.28 4.45, 16.28 5.28 M16.28 1.76 C16.28 2.75, 16.28 3.74, 16.28 5.28 M16.28 5.28 C16.28 6.45, 15.69 7.04, 14.52 7.04 M16.28 5.28 C16.28 6.45, 15.69 7.04, 14.52 7.04 M14.52 7.04 C9.86 7.04, 5.2 7.04, 1.76 7.04 M14.52 7.04 C10.68 7.04, 6.85 7.04, 1.76 7.04 M1.76 7.04 C0.59 7.04, 0 6.45, 0 5.28 M1.76 7.04 C0.59 7.04, 0 6.45, 0 5.28 M0 5.28 C0 4, 0 2.72, 0 1.76 M0 5.28 C0 4.12, 0 2.97, 0 1.76 M0 1.76 C0 0.59, 0.59 0, 1.76 0 M0 1.76 C0 0.59, 0.59 0, 1.76 0" stroke="#1971c2" stroke-width="2" fill="none"></path></g><g stroke-linecap="round"><g transform="translate(167.6171875 122.52034854568723) rotate(0 0 91.55132959743304)"><path d="M0 0 C0 30.52, 0 152.59, 0 183.1" stroke="#2f9e44" stroke-width="2.5" fill="none" stroke-dasharray="8 10"></path></g></g><mask></mask><g transform="translate(135.2672119140625 91.53597354568723) rotate(0 32.3499755859375 12.5)"><text x="32.3499755859375" y="0" font-family="Virgil, Segoe UI Emoji" font-size="20px" fill="#2f9e44" text-anchor="middle" style="white-space: pre;" direction="ltr" dominant-baseline="text-before-edge">Median</text></g><g stroke-linecap="round"><g transform="translate(233.26171875 147.96175479568723) rotate(0 0 79.70887432779523)"><path d="M0 0 C0 26.57, 0 132.85, 0 159.42" stroke="#f08c00" stroke-width="2.5" fill="none" stroke-dasharray="8 10"></path></g></g><mask></mask><g transform="translate(182.50177001953125 118.78987979568723) rotate(0 50.75994873046875 12.5)"><text x="50.75994873046875" y="0" font-family="Virgil, Segoe UI Emoji" font-size="20px" fill="#f08c00" text-anchor="middle" style="white-space: pre;" direction="ltr" dominant-baseline="text-before-edge">Mittelwert</text></g><g stroke-linecap="round"><g transform="translate(492.175113574658 301.9633522042711) rotate(0 0 -141.77734375)"><path d="M0 0 C0 -47.26, 0 -236.3, 0 -283.55 M0 0 C0 -47.26, 0 -236.3, 0 -283.55" stroke="#1e1e1e" stroke-width="2" fill="none"></path></g><g transform="translate(492.175113574658 301.9633522042711) rotate(0 0 -141.77734375)"><path d="M8.55 -260.06 C5.74 -267.79, 2.93 -275.51, 0 -283.55 M8.55 -260.06 C5.48 -268.5, 2.41 -276.93, 0 -283.55" stroke="#1e1e1e" stroke-width="2" fill="none"></path></g><g transform="translate(492.175113574658 301.9633522042711) rotate(0 0 -141.77734375)"><path d="M-8.55 -260.06 C-5.74 -267.79, -2.93 -275.51, 0 -283.55 M-8.55 -260.06 C-5.48 -268.5, -2.41 -276.93, 0 -283.55" stroke="#1e1e1e" stroke-width="2" fill="none"></path></g></g><mask></mask><g stroke-linecap="round"><g transform="translate(476.807926074658 280.9789772042711) rotate(0 215.64062500000006 0)"><path d="M0 0 C71.88 0, 359.4 0, 431.28 0 M0 0 C71.88 0, 359.4 0, 431.28 0" stroke="#1e1e1e" stroke-width="2" fill="none"></path></g><g transform="translate(476.807926074658 280.9789772042711) rotate(0 215.64062500000006 0)"><path d="M407.79 8.55 C413.65 6.42, 419.52 4.28, 431.28 0 M407.79 8.55 C415.79 5.64, 423.79 2.73, 431.28 0" stroke="#1e1e1e" stroke-width="2" fill="none"></path></g><g transform="translate(476.807926074658 280.9789772042711) rotate(0 215.64062500000006 0)"><path d="M407.79 -8.55 C413.65 -6.42, 419.52 -4.28, 431.28 0 M407.79 -8.55 C415.79 -5.64, 423.79 -2.73, 431.28 0" stroke="#1e1e1e" stroke-width="2" fill="none"></path></g></g><mask></mask><g stroke-linecap="round" transform="translate(505.276676074658 235.05710220427108) rotate(0 8.28515625 22.10546875)"><path d="M1.1 0.96 C1.1 0.96, 1.1 0.96, 1.1 0.96 M1.1 0.96 C1.1 0.96, 1.1 0.96, 1.1 0.96 M0.58 13.75 C3.04 10.92, 5.5 8.09, 12.39 0.17 M0.58 13.75 C4.23 9.55, 7.89 5.35, 12.39 0.17 M0.71 25.79 C5.75 20, 10.79 14.2, 17.11 6.93 M0.71 25.79 C4.77 21.13, 8.82 16.47, 17.11 6.93 M0.85 37.84 C7.02 30.74, 13.19 23.64, 16.59 19.72 M0.85 37.84 C6.56 31.26, 12.28 24.69, 16.59 19.72 M5.57 44.59 C9.17 40.45, 12.77 36.31, 16.72 31.76 M5.57 44.59 C9.71 39.83, 13.85 35.07, 16.72 31.76" stroke="#ffffff" stroke-width="1" fill="none"></path><path d="M4.14 0 C6.75 0, 9.35 0, 12.43 0 M4.14 0 C6.69 0, 9.24 0, 12.43 0 M12.43 0 C15.19 0, 16.57 1.38, 16.57 4.14 M12.43 0 C15.19 0, 16.57 1.38, 16.57 4.14 M16.57 4.14 C16.57 13.44, 16.57 22.73, 16.57 40.07 M16.57 4.14 C16.57 14.12, 16.57 24.09, 16.57 40.07 M16.57 40.07 C16.57 42.83, 15.19 44.21, 12.43 44.21 M16.57 40.07 C16.57 42.83, 15.19 44.21, 12.43 44.21 M12.43 44.21 C9.74 44.21, 7.05 44.21, 4.14 44.21 M12.43 44.21 C9.74 44.21, 7.04 44.21, 4.14 44.21 M4.14 44.21 C1.38 44.21, 0 42.83, 0 40.07 M4.14 44.21 C1.38 44.21, 0 42.83, 0 40.07 M0 40.07 C0 26.8, 0 13.53, 0 4.14 M0 40.07 C0 26.44, 0 12.82, 0 4.14 M0 4.14 C0 1.38, 1.38 0, 4.14 0 M0 4.14 C0 1.38, 1.38 0, 4.14 0" stroke="#1971c2" stroke-width="2" fill="none"></path></g><g stroke-linecap="round" transform="translate(523.432926074658 219.01022720427108) rotate(0 8.322265625 30.12890625)"><path d="M1.11 0.96 C1.11 0.96, 1.11 0.96, 1.11 0.96 M1.11 0.96 C1.11 0.96, 1.11 0.96, 1.11 0.96 M0.58 13.76 C3.98 9.85, 7.38 5.94, 12.39 0.17 M0.58 13.76 C4.87 8.83, 9.15 3.91, 12.39 0.17 M0.72 25.8 C7.05 18.52, 13.38 11.24, 17.12 6.93 M0.72 25.8 C5.49 20.31, 10.26 14.83, 17.12 6.93 M0.85 37.84 C6.23 31.66, 11.6 25.47, 16.6 19.73 M0.85 37.84 C6.23 31.66, 11.6 25.47, 16.6 19.73 M0.98 49.88 C5.07 45.18, 9.16 40.47, 16.73 31.77 M0.98 49.88 C4.21 46.16, 7.45 42.45, 16.73 31.77 M2.43 60.41 C8.05 53.94, 13.68 47.47, 16.86 43.81 M2.43 60.41 C7.95 54.06, 13.47 47.71, 16.86 43.81 M13.06 60.38 C14.51 58.71, 15.95 57.05, 17 55.85 M13.06 60.38 C14 59.29, 14.94 58.21, 17 55.85" stroke="#ffffff" stroke-width="1" fill="none"></path><path d="M4.16 0 C6.11 0, 8.06 0, 12.48 0 M4.16 0 C7.17 0, 10.17 0, 12.48 0 M12.48 0 C15.26 0, 16.64 1.39, 16.64 4.16 M12.48 0 C15.26 0, 16.64 1.39, 16.64 4.16 M16.64 4.16 C16.64 19.14, 16.64 34.11, 16.64 56.1 M16.64 4.16 C16.64 23.82, 16.64 43.48, 16.64 56.1 M16.64 56.1 C16.64 58.87, 15.26 60.26, 12.48 60.26 M16.64 56.1 C16.64 58.87, 15.26 60.26, 12.48 60.26 M12.48 60.26 C10.55 60.26, 8.61 60.26, 4.16 60.26 M12.48 60.26 C9.54 60.26, 6.59 60.26, 4.16 60.26 M4.16 60.26 C1.39 60.26, 0 58.87, 0 56.1 M4.16 60.26 C1.39 60.26, 0 58.87, 0 56.1 M0 56.1 C0 41.39, 0 26.68, 0 4.16 M0 56.1 C0 42.17, 0 28.24, 0 4.16 M0 4.16 C0 1.39, 1.39 0, 4.16 0 M0 4.16 C0 1.39, 1.39 0, 4.16 0" stroke="#1971c2" stroke-width="2" fill="none"></path></g><g stroke-linecap="round" transform="translate(543.253238574658 199.77975845427108) rotate(0 8.154296875 39.744140625)"><path d="M1.09 0.94 C1.09 0.94, 1.09 0.94, 1.09 0.94 M1.09 0.94 C1.09 0.94, 1.09 0.94, 1.09 0.94 M0.56 13.74 C4.27 9.48, 7.97 5.22, 12.37 0.15 M0.56 13.74 C5.04 8.58, 9.53 3.43, 12.37 0.15 M0.7 25.78 C6.54 19.06, 12.39 12.33, 16.44 7.67 M0.7 25.78 C4.46 21.44, 8.23 17.11, 16.44 7.67 M0.83 37.82 C4.24 33.9, 7.65 29.98, 16.57 19.71 M0.83 37.82 C4.13 34.02, 7.44 30.22, 16.57 19.71 M0.31 50.62 C5.95 44.12, 11.59 37.63, 16.71 31.75 M0.31 50.62 C5.46 44.69, 10.62 38.76, 16.71 31.75 M0.44 62.66 C6.98 55.14, 13.51 47.62, 16.84 43.79 M0.44 62.66 C5.02 57.38, 9.61 52.11, 16.84 43.79 M0.57 74.7 C4.15 70.59, 7.72 66.48, 16.97 55.83 M0.57 74.7 C7 67.3, 13.43 59.91, 16.97 55.83 M6.61 79.95 C9.34 76.81, 12.07 73.67, 16.45 68.63 M6.61 79.95 C10.09 75.95, 13.56 71.95, 16.45 68.63" stroke="#ffffff" stroke-width="1" fill="none"></path><path d="M4.08 0 C6.67 0, 9.27 0, 12.23 0 M4.08 0 C6.15 0, 8.23 0, 12.23 0 M12.23 0 C14.95 0, 16.31 1.36, 16.31 4.08 M12.23 0 C14.95 0, 16.31 1.36, 16.31 4.08 M16.31 4.08 C16.31 23.45, 16.31 42.82, 16.31 75.41 M16.31 4.08 C16.31 28.37, 16.31 52.66, 16.31 75.41 M16.31 75.41 C16.31 78.13, 14.95 79.49, 12.23 79.49 M16.31 75.41 C16.31 78.13, 14.95 79.49, 12.23 79.49 M12.23 79.49 C9.51 79.49, 6.78 79.49, 4.08 79.49 M12.23 79.49 C10.25 79.49, 8.27 79.49, 4.08 79.49 M4.08 79.49 C1.36 79.49, 0 78.13, 0 75.41 M4.08 79.49 C1.36 79.49, 0 78.13, 0 75.41 M0 75.41 C0 61.11, 0 46.81, 0 4.08 M0 75.41 C0 48.85, 0 22.3, 0 4.08 M0 4.08 C0 1.36, 1.36 0, 4.08 0 M0 4.08 C0 1.36, 1.36 0, 4.08 0" stroke="#1971c2" stroke-width="2" fill="none"></path></g><g stroke-linecap="round" transform="translate(563.686832324658 174.01413345427108) rotate(0 7.8515625 52.626953125)"><path d="M1.04 0.91 C1.04 0.91, 1.04 0.91, 1.04 0.91 M1.04 0.91 C1.04 0.91, 1.04 0.91, 1.04 0.91 M0.52 13.7 C5.23 8.28, 9.95 2.86, 12.33 0.12 M0.52 13.7 C3.76 9.98, 7 6.25, 12.33 0.12 M0.66 25.74 C4.19 21.68, 7.72 17.62, 16.4 7.63 M0.66 25.74 C5.85 19.77, 11.05 13.79, 16.4 7.63 M0.79 37.79 C6.04 31.75, 11.28 25.71, 16.53 19.67 M0.79 37.79 C5.86 31.95, 10.94 26.11, 16.53 19.67 M0.92 49.83 C6.48 43.43, 12.05 37.03, 16.67 31.71 M0.92 49.83 C6.64 43.24, 12.37 36.66, 16.67 31.71 M0.4 62.62 C4.62 57.76, 8.84 52.91, 16.14 44.51 M0.4 62.62 C6.11 56.05, 11.83 49.48, 16.14 44.51 M0.53 74.66 C4.65 69.93, 8.77 65.19, 16.28 56.55 M0.53 74.66 C4.99 69.53, 9.45 64.41, 16.28 56.55 M0.66 86.7 C6.34 80.17, 12.02 73.64, 16.41 68.59 M0.66 86.7 C6.91 79.52, 13.15 72.34, 16.41 68.59 M0.8 98.74 C5.2 93.68, 9.6 88.62, 16.54 80.63 M0.8 98.74 C6.17 92.57, 11.53 86.39, 16.54 80.63 M5.52 105.5 C8.46 102.12, 11.4 98.74, 16.68 92.67 M5.52 105.5 C9.72 100.67, 13.93 95.84, 16.68 92.67" stroke="#ffffff" stroke-width="1" fill="none"></path><path d="M3.93 0 C6.16 0, 8.39 0, 11.78 0 M3.93 0 C6.19 0, 8.45 0, 11.78 0 M11.78 0 C14.39 0, 15.7 1.31, 15.7 3.93 M11.78 0 C14.39 0, 15.7 1.31, 15.7 3.93 M15.7 3.93 C15.7 23.78, 15.7 43.63, 15.7 101.33 M15.7 3.93 C15.7 30.19, 15.7 56.45, 15.7 101.33 M15.7 101.33 C15.7 103.95, 14.39 105.25, 11.78 105.25 M15.7 101.33 C15.7 103.95, 14.39 105.25, 11.78 105.25 M11.78 105.25 C9.74 105.25, 7.69 105.25, 3.93 105.25 M11.78 105.25 C9.85 105.25, 7.93 105.25, 3.93 105.25 M3.93 105.25 C1.31 105.25, 0 103.95, 0 101.33 M3.93 105.25 C1.31 105.25, 0 103.95, 0 101.33 M0 101.33 C0 67.85, 0 34.37, 0 3.93 M0 101.33 C0 78, 0 54.68, 0 3.93 M0 3.93 C0 1.31, 1.31 0, 3.93 0 M0 3.93 C0 1.31, 1.31 0, 3.93 0" stroke="#1971c2" stroke-width="2" fill="none"></path></g><g stroke-linecap="round" transform="translate(583.893863574658 147.40866470427108) rotate(0 8.255859375 65.9296875)"><path d="M1.1 0.96 C1.1 0.96, 1.1 0.96, 1.1 0.96 M1.1 0.96 C1.1 0.96, 1.1 0.96, 1.1 0.96 M0.58 13.75 C5.15 8.48, 9.73 3.22, 12.38 0.17 M0.58 13.75 C5.09 8.55, 9.61 3.35, 12.38 0.17 M0.71 25.79 C5.14 20.69, 9.58 15.59, 16.45 7.68 M0.71 25.79 C5.09 20.76, 9.46 15.72, 16.45 7.68 M0.84 37.83 C4.41 33.73, 7.98 29.63, 16.59 19.72 M0.84 37.83 C6.63 31.18, 12.41 24.52, 16.59 19.72 M0.32 50.63 C5.68 44.46, 11.04 38.29, 16.72 31.76 M0.32 50.63 C3.73 46.7, 7.15 42.77, 16.72 31.76 M0.45 62.67 C4.54 57.96, 8.63 53.26, 16.85 43.8 M0.45 62.67 C4.53 57.98, 8.61 53.29, 16.85 43.8 M0.59 74.71 C4.96 69.67, 9.34 64.64, 16.99 55.84 M0.59 74.71 C5.24 69.35, 9.9 64, 16.99 55.84 M0.72 86.75 C5.47 81.28, 10.23 75.81, 16.46 68.64 M0.72 86.75 C5.64 81.09, 10.56 75.43, 16.46 68.64 M0.85 98.79 C6.69 92.08, 12.53 85.36, 16.6 80.68 M0.85 98.79 C7.04 91.67, 13.23 84.55, 16.6 80.68 M0.33 111.59 C4.05 107.31, 7.76 103.03, 16.73 92.72 M0.33 111.59 C5.23 105.94, 10.14 100.3, 16.73 92.72 M0.46 123.63 C3.81 119.77, 7.16 115.92, 16.86 104.76 M0.46 123.63 C6.64 116.52, 12.82 109.41, 16.86 104.76 M3.88 131.9 C7.33 127.93, 10.78 123.96, 17 116.8 M3.88 131.9 C6.51 128.87, 9.14 125.84, 17 116.8 M14.51 131.86 C14.81 131.51, 15.11 131.16, 15.82 130.35 M14.51 131.86 C14.81 131.51, 15.11 131.17, 15.82 130.35" stroke="#ffffff" stroke-width="1" fill="none"></path><path d="M4.13 0 C6.28 0, 8.43 0, 12.38 0 M4.13 0 C5.81 0, 7.49 0, 12.38 0 M12.38 0 C15.14 0, 16.51 1.38, 16.51 4.13 M12.38 0 C15.14 0, 16.51 1.38, 16.51 4.13 M16.51 4.13 C16.51 48.83, 16.51 93.54, 16.51 127.73 M16.51 4.13 C16.51 46.61, 16.51 89.1, 16.51 127.73 M16.51 127.73 C16.51 130.48, 15.14 131.86, 12.38 131.86 M16.51 127.73 C16.51 130.48, 15.14 131.86, 12.38 131.86 M12.38 131.86 C9.16 131.86, 5.93 131.86, 4.13 131.86 M12.38 131.86 C9.74 131.86, 7.1 131.86, 4.13 131.86 M4.13 131.86 C1.38 131.86, 0 130.48, 0 127.73 M4.13 131.86 C1.38 131.86, 0 130.48, 0 127.73 M0 127.73 C0 83.99, 0 40.24, 0 4.13 M0 127.73 C0 84.23, 0 40.73, 0 4.13 M0 4.13 C0 1.38, 1.38 0, 4.13 0 M0 4.13 C0 1.38, 1.38 0, 4.13 0" stroke="#1971c2" stroke-width="2" fill="none"></path></g><g stroke-linecap="round" transform="translate(604.050113574658 130.16591805273532) rotate(0 8.614031308001358 74.55106082576788)"><path d="M1.15 1 C1.15 1, 1.15 1, 1.15 1 M1.15 1 C1.15 1, 1.15 1, 1.15 1 M0.62 13.79 C3.7 10.25, 6.78 6.71, 12.43 0.21 M0.62 13.79 C4.83 8.95, 9.04 4.11, 12.43 0.21 M0.76 25.83 C5.19 20.73, 9.63 15.63, 17.81 6.21 M0.76 25.83 C7.08 18.56, 13.41 11.28, 17.81 6.21 M0.23 38.63 C4.77 33.41, 9.3 28.2, 17.95 18.25 M0.23 38.63 C4.87 33.29, 9.51 27.95, 17.95 18.25 M0.37 50.67 C6.73 43.35, 13.1 36.02, 17.42 31.05 M0.37 50.67 C6.99 43.05, 13.62 35.42, 17.42 31.05 M0.5 62.71 C5.71 56.72, 10.91 50.73, 17.56 43.09 M0.5 62.71 C5.51 56.94, 10.52 51.18, 17.56 43.09 M0.63 74.75 C6.74 67.73, 12.85 60.7, 17.69 55.13 M0.63 74.75 C6.81 67.65, 12.98 60.54, 17.69 55.13 M0.77 86.79 C5.77 81.04, 10.77 75.28, 17.82 67.17 M0.77 86.79 C5.44 81.41, 10.12 76.03, 17.82 67.17 M0.24 99.59 C6.85 91.99, 13.45 84.4, 17.96 79.21 M0.24 99.59 C4.94 94.19, 9.63 88.79, 17.96 79.21 M0.38 111.63 C3.82 107.67, 7.25 103.72, 17.43 92.01 M0.38 111.63 C6.83 104.2, 13.29 96.78, 17.43 92.01 M0.51 123.67 C6.86 116.36, 13.21 109.06, 17.57 104.05 M0.51 123.67 C6.05 117.3, 11.58 110.93, 17.57 104.05 M0.64 135.71 C5.91 129.65, 11.17 123.6, 17.7 116.09 M0.64 135.71 C6.36 129.13, 12.08 122.56, 17.7 116.09 M1.43 147 C6.5 141.17, 11.56 135.35, 17.83 128.13 M1.43 147 C5.05 142.83, 8.67 138.67, 17.83 128.13 M10.09 149.23 C13.16 145.7, 16.23 142.17, 17.97 140.17 M10.09 149.23 C11.87 147.18, 13.65 145.13, 17.97 140.17" stroke="#ffffff" stroke-width="1" fill="none"></path><path d="M4.31 0 C7.7 0, 11.09 0, 12.92 0 M4.31 0 C6.7 0, 9.08 0, 12.92 0 M12.92 0 C15.79 0, 17.23 1.44, 17.23 4.31 M12.92 0 C15.79 0, 17.23 1.44, 17.23 4.31 M17.23 4.31 C17.23 47.72, 17.23 91.13, 17.23 144.8 M17.23 4.31 C17.23 47.4, 17.23 90.48, 17.23 144.8 M17.23 144.8 C17.23 147.67, 15.79 149.1, 12.92 149.1 M17.23 144.8 C17.23 147.67, 15.79 149.1, 12.92 149.1 M12.92 149.1 C10.65 149.1, 8.38 149.1, 4.31 149.1 M12.92 149.1 C11 149.1, 9.08 149.1, 4.31 149.1 M4.31 149.1 C1.44 149.1, 0 147.67, 0 144.8 M4.31 149.1 C1.44 149.1, 0 147.67, 0 144.8 M0 144.8 C0 103.09, 0 61.38, 0 4.31 M0 144.8 C0 113.84, 0 82.89, 0 4.31 M0 4.31 C0 1.44, 1.44 0, 4.31 0 M0 4.31 C0 1.44, 1.44 0, 4.31 0" stroke="#1971c2" stroke-width="2" fill="none"></path></g><g stroke-linecap="round" transform="translate(625.475894824658 115.60351025277714) rotate(0 8.819452396329098 81.83226472574697)"><path d="M1.17 1.02 C1.17 1.02, 1.17 1.02, 1.17 1.02 M1.17 1.02 C1.17 1.02, 1.17 1.02, 1.17 1.02 M0.65 13.82 C4.69 9.17, 8.73 4.52, 12.46 0.23 M0.65 13.82 C3.68 10.34, 6.7 6.85, 12.46 0.23 M0.78 25.86 C5.29 20.67, 9.79 15.49, 17.84 6.23 M0.78 25.86 C6.95 18.76, 13.12 11.67, 17.84 6.23 M0.26 38.65 C4.02 34.33, 7.77 30.01, 17.97 18.28 M0.26 38.65 C4.6 33.66, 8.94 28.67, 17.97 18.28 M0.39 50.69 C5.27 45.09, 10.14 39.48, 18.11 30.32 M0.39 50.69 C4.35 46.15, 8.3 41.6, 18.11 30.32 M0.53 62.73 C5.94 56.5, 11.36 50.28, 17.58 43.11 M0.53 62.73 C5.48 57.04, 10.43 51.34, 17.58 43.11 M0.66 74.77 C4.44 70.43, 8.22 66.08, 17.72 55.15 M0.66 74.77 C7.08 67.39, 13.5 60.01, 17.72 55.15 M0.79 86.82 C6.46 80.3, 12.13 73.78, 17.85 67.19 M0.79 86.82 C4.22 82.88, 7.64 78.94, 17.85 67.19 M0.27 99.61 C5.6 93.49, 10.92 87.36, 17.98 79.23 M0.27 99.61 C6.13 92.87, 11.99 86.13, 17.98 79.23 M0.4 111.65 C6.2 104.99, 11.99 98.32, 18.12 91.28 M0.4 111.65 C4.6 106.82, 8.8 101.99, 18.12 91.28 M0.54 123.69 C4.06 119.64, 7.57 115.6, 17.59 104.07 M0.54 123.69 C6.5 116.83, 12.47 109.97, 17.59 104.07 M0.67 135.73 C6.97 128.48, 13.28 121.23, 17.73 116.11 M0.67 135.73 C6.03 129.57, 11.39 123.4, 17.73 116.11 M0.8 147.77 C6.43 141.31, 12.05 134.84, 17.86 128.15 M0.8 147.77 C5.05 142.89, 9.3 138.01, 17.86 128.15 M0.28 160.57 C6.02 153.97, 11.76 147.37, 17.99 140.19 M0.28 160.57 C7.36 152.42, 14.45 144.28, 17.99 140.19 M8.29 163.55 C11.81 159.5, 15.34 155.44, 18.13 152.23 M8.29 163.55 C12.2 159.05, 16.12 154.55, 18.13 152.23" stroke="#ffffff" stroke-width="1" fill="none"></path><path d="M4.41 0 C6.67 0, 8.93 0, 13.23 0 M4.41 0 C6.29 0, 8.17 0, 13.23 0 M13.23 0 C16.17 0, 17.64 1.47, 17.64 4.41 M13.23 0 C16.17 0, 17.64 1.47, 17.64 4.41 M17.64 4.41 C17.64 51.36, 17.64 98.32, 17.64 159.25 M17.64 4.41 C17.64 60.47, 17.64 116.52, 17.64 159.25 M17.64 159.25 C17.64 162.19, 16.17 163.66, 13.23 163.66 M17.64 159.25 C17.64 162.19, 16.17 163.66, 13.23 163.66 M13.23 163.66 C9.9 163.66, 6.58 163.66, 4.41 163.66 M13.23 163.66 C9.71 163.66, 6.18 163.66, 4.41 163.66 M4.41 163.66 C1.47 163.66, 0 162.19, 0 159.25 M4.41 163.66 C1.47 163.66, 0 162.19, 0 159.25 M0 159.25 C0 117.53, 0 75.8, 0 4.41 M0 159.25 C0 116.3, 0 73.35, 0 4.41 M0 4.41 C0 1.47, 1.47 0, 4.41 0 M0 4.41 C0 1.47, 1.47 0, 4.41 0" stroke="#1971c2" stroke-width="2" fill="none"></path></g><g stroke-linecap="round" transform="translate(647.507144824658 133.74381217949133) rotate(0 7.690294268112098 72.76211376238987)"><path d="M1.02 0.89 C1.02 0.89, 1.02 0.89, 1.02 0.89 M1.02 0.89 C1.02 0.89, 1.02 0.89, 1.02 0.89 M0.5 13.69 C3.93 9.74, 7.35 5.8, 11.65 0.86 M0.5 13.69 C3.26 10.51, 6.01 7.34, 11.65 0.86 M0.63 25.73 C6.55 18.92, 12.46 12.12, 15.72 8.37 M0.63 25.73 C6.11 19.42, 11.59 13.12, 15.72 8.37 M0.77 37.77 C5.64 32.16, 10.51 26.56, 15.86 20.41 M0.77 37.77 C6.37 31.32, 11.97 24.88, 15.86 20.41 M0.9 49.81 C5.18 44.88, 9.47 39.95, 15.33 33.2 M0.9 49.81 C5.26 44.79, 9.63 39.77, 15.33 33.2 M0.38 62.6 C4.79 57.53, 9.2 52.45, 15.47 45.25 M0.38 62.6 C5.78 56.38, 11.19 50.17, 15.47 45.25 M0.51 74.64 C5.23 69.22, 9.94 63.79, 15.6 57.29 M0.51 74.64 C6.09 68.22, 11.67 61.81, 15.6 57.29 M0.64 86.69 C4.1 82.71, 7.55 78.74, 15.73 69.33 M0.64 86.69 C4.45 82.31, 8.25 77.93, 15.73 69.33 M0.78 98.73 C4.18 94.82, 7.58 90.91, 15.87 81.37 M0.78 98.73 C4.72 94.19, 8.66 89.65, 15.87 81.37 M0.91 110.77 C4.4 106.75, 7.89 102.74, 15.34 94.16 M0.91 110.77 C4.52 106.61, 8.14 102.45, 15.34 94.16 M0.39 123.56 C3.68 119.77, 6.97 115.99, 15.48 106.2 M0.39 123.56 C5.3 117.91, 10.22 112.25, 15.48 106.2 M0.52 135.6 C5.62 129.74, 10.72 123.87, 15.61 118.24 M0.52 135.6 C5.1 130.34, 9.68 125.07, 15.61 118.24 M2.62 145.38 C6.18 141.28, 9.75 137.18, 15.74 130.29 M2.62 145.38 C7.41 139.87, 12.2 134.36, 15.74 130.29 M13.25 145.35 C13.83 144.68, 14.41 144.01, 15.88 142.33 M13.25 145.35 C14.08 144.4, 14.9 143.44, 15.88 142.33" stroke="#ffffff" stroke-width="1" fill="none"></path><path d="M3.85 0 C5.78 0, 7.72 0, 11.54 0 M3.85 0 C5.68 0, 7.51 0, 11.54 0 M11.54 0 C14.1 0, 15.38 1.28, 15.38 3.85 M11.54 0 C14.1 0, 15.38 1.28, 15.38 3.85 M15.38 3.85 C15.38 45.42, 15.38 86.99, 15.38 141.68 M15.38 3.85 C15.38 40.56, 15.38 77.27, 15.38 141.68 M15.38 141.68 C15.38 144.24, 14.1 145.52, 11.54 145.52 M15.38 141.68 C15.38 144.24, 14.1 145.52, 11.54 145.52 M11.54 145.52 C8.47 145.52, 5.4 145.52, 3.85 145.52 M11.54 145.52 C9.37 145.52, 7.21 145.52, 3.85 145.52 M3.85 145.52 C1.28 145.52, 0 144.24, 0 141.68 M3.85 145.52 C1.28 145.52, 0 144.24, 0 141.68 M0 141.68 C0 113.29, 0 84.91, 0 3.85 M0 141.68 C0 90.45, 0 39.23, 0 3.85 M0 3.85 C0 1.28, 1.28 0, 3.85 0 M0 3.85 C0 1.28, 1.28 0, 3.85 0" stroke="#1971c2" stroke-width="2" fill="none"></path></g><g stroke-linecap="round" transform="translate(666.522769824658 151.4449667669523) rotate(0 8.148412962791554 63.91153646865939)"><path d="M1.08 0.94 C1.08 0.94, 1.08 0.94, 1.08 0.94 M1.08 0.94 C1.08 0.94, 1.08 0.94, 1.08 0.94 M0.56 13.74 C5.12 8.5, 9.68 3.25, 12.37 0.15 M0.56 13.74 C4 9.79, 7.43 5.84, 12.37 0.15 M0.69 25.78 C6.07 19.59, 11.45 13.41, 16.44 7.67 M0.69 25.78 C6.07 19.6, 11.45 13.41, 16.44 7.67 M0.83 37.82 C4.92 33.12, 9.01 28.41, 16.57 19.71 M0.83 37.82 C4.06 34.1, 7.29 30.39, 16.57 19.71 M0.3 50.62 C6.7 43.26, 13.09 35.91, 16.71 31.75 M0.3 50.62 C6.58 43.4, 12.85 36.18, 16.71 31.75 M0.44 62.66 C6.47 55.72, 12.5 48.78, 16.84 43.79 M0.44 62.66 C4.37 58.14, 8.29 53.62, 16.84 43.79 M0.57 74.7 C4.85 69.78, 9.13 64.86, 16.97 55.83 M0.57 74.7 C4.91 69.71, 9.24 64.72, 16.97 55.83 M0.7 86.74 C4.03 82.91, 7.36 79.08, 16.45 68.63 M0.7 86.74 C5.8 80.88, 10.9 75.01, 16.45 68.63 M0.84 98.78 C5.25 93.7, 9.66 88.63, 16.58 80.67 M0.84 98.78 C5.85 93.01, 10.87 87.24, 16.58 80.67 M0.31 111.57 C5.07 106.1, 9.83 100.63, 16.72 92.71 M0.31 111.57 C4.27 107.03, 8.22 102.48, 16.72 92.71 M0.45 123.62 C4.88 118.52, 9.31 113.42, 16.85 104.75 M0.45 123.62 C4.22 119.27, 8 114.93, 16.85 104.75 M7.8 127.35 C10.35 124.42, 12.9 121.48, 16.33 117.54 M7.8 127.35 C9.74 125.12, 11.69 122.88, 16.33 117.54" stroke="#ffffff" stroke-width="1" fill="none"></path><path d="M4.07 0 C5.87 0, 7.66 0, 12.22 0 M4.07 0 C7.29 0, 10.5 0, 12.22 0 M12.22 0 C14.94 0, 16.3 1.36, 16.3 4.07 M12.22 0 C14.94 0, 16.3 1.36, 16.3 4.07 M16.3 4.07 C16.3 48.04, 16.3 92.01, 16.3 123.75 M16.3 4.07 C16.3 30.83, 16.3 57.58, 16.3 123.75 M16.3 123.75 C16.3 126.47, 14.94 127.82, 12.22 127.82 M16.3 123.75 C16.3 126.47, 14.94 127.82, 12.22 127.82 M12.22 127.82 C9.2 127.82, 6.18 127.82, 4.07 127.82 M12.22 127.82 C9.16 127.82, 6.09 127.82, 4.07 127.82 M4.07 127.82 C1.36 127.82, 0 126.47, 0 123.75 M4.07 127.82 C1.36 127.82, 0 126.47, 0 123.75 M0 123.75 C0 89.76, 0 55.78, 0 4.07 M0 123.75 C0 92.49, 0 61.23, 0 4.07 M0 4.07 C0 1.36, 1.36 0, 4.07 0 M0 4.07 C0 1.36, 1.36 0, 4.07 0" stroke="#1971c2" stroke-width="2" fill="none"></path></g><g stroke-linecap="round" transform="translate(685.710269824658 173.31994037102692) rotate(0 8.698699193100367 52.97404966662208)"><path d="M1.16 1.01 C1.16 1.01, 1.16 1.01, 1.16 1.01 M1.16 1.01 C1.16 1.01, 1.16 1.01, 1.16 1.01 M0.63 13.8 C5.02 8.76, 9.4 3.72, 12.44 0.22 M0.63 13.8 C3.46 10.55, 6.29 7.3, 12.44 0.22 M0.77 25.84 C4.46 21.59, 8.15 17.35, 17.83 6.22 M0.77 25.84 C4.35 21.73, 7.93 17.61, 17.83 6.22 M0.25 38.64 C6.34 31.63, 12.44 24.61, 17.96 18.26 M0.25 38.64 C5.81 32.23, 11.38 25.83, 17.96 18.26 M0.38 50.68 C7.44 42.56, 14.5 34.44, 18.09 30.3 M0.38 50.68 C5.33 44.98, 10.28 39.28, 18.09 30.3 M0.51 62.72 C4.23 58.44, 7.94 54.17, 17.57 43.1 M0.51 62.72 C7.2 55.03, 13.88 47.34, 17.57 43.1 M0.64 74.76 C5.38 69.32, 10.11 63.87, 17.7 55.14 M0.64 74.76 C6.67 67.83, 12.7 60.89, 17.7 55.14 M0.78 86.8 C6.47 80.26, 12.16 73.71, 17.84 67.18 M0.78 86.8 C6.55 80.17, 12.31 73.53, 17.84 67.18 M0.25 99.6 C4.99 94.15, 9.73 88.7, 17.97 79.22 M0.25 99.6 C4.66 94.53, 9.07 89.46, 17.97 79.22 M5.64 105.6 C9.74 100.88, 13.84 96.17, 18.1 91.26 M5.64 105.6 C10.28 100.26, 14.92 94.92, 18.1 91.26" stroke="#ffffff" stroke-width="1" fill="none"></path><path d="M4.35 0 C6.49 0, 8.62 0, 13.05 0 M4.35 0 C6.38 0, 8.4 0, 13.05 0 M13.05 0 C15.95 0, 17.4 1.45, 17.4 4.35 M13.05 0 C15.95 0, 17.4 1.45, 17.4 4.35 M17.4 4.35 C17.4 31.21, 17.4 58.08, 17.4 101.6 M17.4 4.35 C17.4 41.13, 17.4 77.91, 17.4 101.6 M17.4 101.6 C17.4 104.5, 15.95 105.95, 13.05 105.95 M17.4 101.6 C17.4 104.5, 15.95 105.95, 13.05 105.95 M13.05 105.95 C10.29 105.95, 7.53 105.95, 4.35 105.95 M13.05 105.95 C9.86 105.95, 6.67 105.95, 4.35 105.95 M4.35 105.95 C1.45 105.95, 0 104.5, 0 101.6 M4.35 105.95 C1.45 105.95, 0 104.5, 0 101.6 M0 101.6 C0 69.39, 0 37.19, 0 4.35 M0 101.6 C0 71.7, 0 41.8, 0 4.35 M0 4.35 C0 1.45, 1.45 0, 4.35 0 M0 4.35 C0 1.45, 1.45 0, 4.35 0" stroke="#1971c2" stroke-width="2" fill="none"></path></g><g stroke-linecap="round" transform="translate(707.4566914810569 199.3188893606411) rotate(0 8.009765625 39.97457517181499)"><path d="M1.07 0.93 C1.07 0.93, 1.07 0.93, 1.07 0.93 M1.07 0.93 C1.07 0.93, 1.07 0.93, 1.07 0.93 M0.54 13.72 C3.19 10.67, 5.84 7.63, 12.35 0.14 M0.54 13.72 C4.44 9.24, 8.34 4.76, 12.35 0.14 M0.68 25.76 C5.92 19.73, 11.17 13.69, 16.42 7.65 M0.68 25.76 C5.75 19.93, 10.83 14.09, 16.42 7.65 M0.81 37.8 C6.37 31.41, 11.93 25.01, 16.55 19.69 M0.81 37.8 C6.53 31.22, 12.26 24.64, 16.55 19.69 M0.29 50.6 C4.69 45.54, 9.08 40.48, 16.69 31.73 M0.29 50.6 C6.24 43.75, 12.19 36.91, 16.69 31.73 M0.42 62.64 C4.71 57.71, 9 52.77, 16.82 43.77 M0.42 62.64 C5.06 57.3, 9.71 51.96, 16.82 43.77 M0.55 74.68 C6.23 68.15, 11.91 61.62, 16.3 56.57 M0.55 74.68 C6.8 67.5, 13.04 60.32, 16.3 56.57 M6.59 79.93 C9.34 76.77, 12.09 73.6, 16.43 68.61 M6.59 79.93 C9.95 76.07, 13.3 72.21, 16.43 68.61" stroke="#ffffff" stroke-width="1" fill="none"></path><path d="M4 0 C6.1 0, 8.2 0, 12.01 0 M4 0 C6.49 0, 8.97 0, 12.01 0 M12.01 0 C14.68 0, 16.02 1.33, 16.02 4 M12.01 0 C14.68 0, 16.02 1.33, 16.02 4 M16.02 4 C16.02 27.18, 16.02 50.36, 16.02 75.94 M16.02 4 C16.02 26.27, 16.02 48.54, 16.02 75.94 M16.02 75.94 C16.02 78.61, 14.68 79.95, 12.01 79.95 M16.02 75.94 C16.02 78.61, 14.68 79.95, 12.01 79.95 M12.01 79.95 C10.02 79.95, 8.03 79.95, 4 79.95 M12.01 79.95 C8.82 79.95, 5.63 79.95, 4 79.95 M4 79.95 C1.33 79.95, 0 78.61, 0 75.94 M4 79.95 C1.33 79.95, 0 78.61, 0 75.94 M0 75.94 C0 59.32, 0 42.7, 0 4 M0 75.94 C0 49.41, 0 22.87, 0 4 M0 4 C0 1.33, 1.33 0, 4 0 M0 4 C0 1.33, 1.33 0, 4 0" stroke="#1971c2" stroke-width="2" fill="none"></path></g><g stroke-linecap="round" transform="translate(727.6633948246581 225.80084930420384) rotate(0 8.28515625 26.73359520003362)"><path d="M1.1 0.96 C1.1 0.96, 1.1 0.96, 1.1 0.96 M1.1 0.96 C1.1 0.96, 1.1 0.96, 1.1 0.96 M0.58 13.75 C3.91 9.93, 7.23 6.1, 12.39 0.17 M0.58 13.75 C3.86 9.98, 7.15 6.2, 12.39 0.17 M0.71 25.79 C4.43 21.52, 8.14 17.25, 17.11 6.93 M0.71 25.79 C6.74 18.86, 12.76 11.93, 17.11 6.93 M0.85 37.84 C5.99 31.91, 11.14 25.99, 16.59 19.72 M0.85 37.84 C4.12 34.07, 7.4 30.29, 16.59 19.72 M0.98 49.88 C4.91 45.36, 8.83 40.84, 16.72 31.76 M0.98 49.88 C4.89 45.37, 8.81 40.87, 16.72 31.76 M8.33 53.62 C10.61 51, 12.88 48.38, 16.86 43.8 M8.33 53.62 C10.75 50.83, 13.17 48.05, 16.86 43.8" stroke="#ffffff" stroke-width="1" fill="none"></path><path d="M4.14 0 C6.29 0, 8.43 0, 12.43 0 M4.14 0 C6.44 0, 8.74 0, 12.43 0 M12.43 0 C15.19 0, 16.57 1.38, 16.57 4.14 M12.43 0 C15.19 0, 16.57 1.38, 16.57 4.14 M16.57 4.14 C16.57 18.8, 16.57 33.45, 16.57 49.32 M16.57 4.14 C16.57 18.83, 16.57 33.51, 16.57 49.32 M16.57 49.32 C16.57 52.09, 15.19 53.47, 12.43 53.47 M16.57 49.32 C16.57 52.09, 15.19 53.47, 12.43 53.47 M12.43 53.47 C9.37 53.47, 6.31 53.47, 4.14 53.47 M12.43 53.47 C9.29 53.47, 6.14 53.47, 4.14 53.47 M4.14 53.47 C1.38 53.47, 0 52.09, 0 49.32 M4.14 53.47 C1.38 53.47, 0 52.09, 0 49.32 M0 49.32 C0 34.43, 0 19.54, 0 4.14 M0 49.32 C0 36, 0 22.68, 0 4.14 M0 4.14 C0 1.38, 1.38 0, 4.14 0 M0 4.14 C0 1.38, 1.38 0, 4.14 0" stroke="#1971c2" stroke-width="2" fill="none"></path></g><g stroke-linecap="round" transform="translate(749.0227698246581 241.06224832695773) rotate(0 8.182876965949845 19.102895688656673)"><path d="M1.09 0.95 C1.09 0.95, 1.09 0.95, 1.09 0.95 M1.09 0.95 C1.09 0.95, 1.09 0.95, 1.09 0.95 M0.57 13.74 C3.64 10.21, 6.71 6.68, 12.38 0.16 M0.57 13.74 C4.94 8.71, 9.32 3.67, 12.38 0.16 M0.7 25.78 C4.73 21.15, 8.76 16.51, 16.44 7.67 M0.7 25.78 C4.82 21.04, 8.95 16.29, 16.44 7.67 M1.49 37.07 C7.12 30.59, 12.75 24.11, 16.58 19.71 M1.49 37.07 C7.35 30.32, 13.21 23.58, 16.58 19.71 M10.81 38.54 C12.61 36.47, 14.41 34.4, 16.71 31.75 M10.81 38.54 C12.54 36.55, 14.28 34.55, 16.71 31.75" stroke="#ffffff" stroke-width="1" fill="none"></path><path d="M4.09 0 C6.45 0, 8.81 0, 12.27 0 M4.09 0 C7.19 0, 10.29 0, 12.27 0 M12.27 0 C15 0, 16.37 1.36, 16.37 4.09 M12.27 0 C15 0, 16.37 1.36, 16.37 4.09 M16.37 4.09 C16.37 11.07, 16.37 18.05, 16.37 34.11 M16.37 4.09 C16.37 14.73, 16.37 25.36, 16.37 34.11 M16.37 34.11 C16.37 36.84, 15 38.21, 12.27 38.21 M16.37 34.11 C16.37 36.84, 15 38.21, 12.27 38.21 M12.27 38.21 C9.96 38.21, 7.64 38.21, 4.09 38.21 M12.27 38.21 C10.08 38.21, 7.89 38.21, 4.09 38.21 M4.09 38.21 C1.36 38.21, 0 36.84, 0 34.11 M4.09 38.21 C1.36 38.21, 0 36.84, 0 34.11 M0 34.11 C0 26.87, 0 19.63, 0 4.09 M0 34.11 C0 27.54, 0 20.96, 0 4.09 M0 4.09 C0 1.36, 1.36 0, 4.09 0 M0 4.09 C0 1.36, 1.36 0, 4.09 0" stroke="#1971c2" stroke-width="2" fill="none"></path></g><g stroke-linecap="round"><g transform="translate(634.948184130964 91.77748839022507) rotate(0 0 107.43556560326815)"><path d="M0 0 C0 35.81, 0 179.06, 0 214.87" stroke="#e03131" stroke-width="2.5" fill="none" stroke-dasharray="8 10"></path></g></g><mask></mask><g transform="translate(604.9482146485421 10) rotate(0 29.999969482421875 12.5)"><text x="29.999969482421875" y="0" font-family="Virgil, Segoe UI Emoji" font-size="20px" fill="#e03131" text-anchor="middle" style="white-space: pre;" direction="ltr" dominant-baseline="text-before-edge">Modus</text></g><g transform="translate(602.5982085450265 36.35299830807509) rotate(0 32.3499755859375 12.5)"><text x="32.3499755859375" y="0" font-family="Virgil, Segoe UI Emoji" font-size="20px" fill="#2f9e44" text-anchor="middle" style="white-space: pre;" direction="ltr" dominant-baseline="text-before-edge">Median</text></g><g transform="translate(584.1882354004953 62.70599661615017) rotate(0 50.75994873046875 12.5)"><text x="50.75994873046875" y="0" font-family="Virgil, Segoe UI Emoji" font-size="20px" fill="#f08c00" text-anchor="middle" style="white-space: pre;" direction="ltr" dominant-baseline="text-before-edge">Mittelwert</text></g><g stroke-linecap="round"><g transform="translate(635.0953368067361 90.27380509063042) rotate(0 0 107.43556560326813)"><path d="M0 0 C0 35.81, 0 179.06, 0 214.87" stroke="#2f9e44" stroke-width="2.5" fill="none" stroke-dasharray="8 10"></path></g></g><mask></mask><g stroke-linecap="round"><g transform="translate(635.9504586897785 91.18593509920908) rotate(0 0 107.43556560326815)"><path d="M0 0 C0 35.81, 0 179.06, 0 214.87" stroke="#f08c00" stroke-width="2.5" fill="none" stroke-dasharray="8 10"></path></g></g><mask></mask><g transform="translate(172.2168961034841 54.853346970964736) rotate(19.475075244809787 112.4798889160156 12.5)"><text x="112.47988891601562" y="0" font-family="Virgil, Segoe UI Emoji" font-size="20px" fill="#1e1e1e" text-anchor="middle" style="white-space: pre;" direction="ltr" dominant-baseline="text-before-edge">Rechtschiefe Verteilung</text></g><g transform="translate(709.5154450783543 83.4212778544111) rotate(22.777559355856077 113.13988494873047 12.5)"><text x="113.13988494873047" y="0" font-family="Virgil, Segoe UI Emoji" font-size="20px" fill="#1e1e1e" text-anchor="middle" style="white-space: pre;" direction="ltr" dominant-baseline="text-before-edge">Symmetrische Verteilung</text></g></svg>